G04*
G04 #@! TF.GenerationSoftware,Altium Limited,Altium Designer,24.4.1 (13)*
G04*
G04 Layer_Color=32896*
%FSLAX25Y25*%
%MOIN*%
G70*
G04*
G04 #@! TF.SameCoordinates,ED40C71A-466C-4DCB-BD38-2C2FE6726D77*
G04*
G04*
G04 #@! TF.FilePolarity,Positive*
G04*
G01*
G75*
%ADD10C,0.00600*%
%ADD12C,0.00500*%
%ADD13C,0.00000*%
D10*
X571500Y279000D02*
Y280900D01*
Y369300D02*
Y371000D01*
X558700D02*
X571500D01*
X556300D02*
X558700D01*
X543500D02*
X556300D01*
X543500Y279000D02*
Y280900D01*
Y279000D02*
X571500D01*
X543500Y369100D02*
Y371000D01*
D12*
X527500Y272500D02*
G03*
X537500Y282500I0J10000D01*
G01*
Y367500D02*
G03*
X527500Y377500I-10000J0D01*
G01*
X467500D02*
G03*
X457500Y367500I0J-10000D01*
G01*
Y282500D02*
G03*
X467500Y272500I10000J0D01*
G01*
X355343Y289937D02*
X357784D01*
Y286000D02*
Y289937D01*
X355343Y282063D02*
X357784D01*
Y286000D01*
X360224D01*
X343216Y289937D02*
X345657D01*
X343216Y286000D02*
Y289937D01*
Y282063D02*
X345657D01*
X343216D02*
Y286000D01*
X340776D02*
X343216D01*
X537776Y259500D02*
X540216D01*
Y255563D02*
Y259500D01*
Y255563D02*
X542658D01*
X540216Y259500D02*
Y263437D01*
X542658D01*
X554783Y259500D02*
X557224D01*
X554783Y255563D02*
Y259500D01*
X552343Y255563D02*
X554783D01*
Y259500D02*
Y263437D01*
X552343D02*
X554783D01*
X442776Y259500D02*
X445217D01*
Y255563D02*
Y259500D01*
Y255563D02*
X447657D01*
X445217Y259500D02*
Y263437D01*
X447657D01*
X459784Y259500D02*
X462224D01*
X459784Y255563D02*
Y259500D01*
X457342Y255563D02*
X459784D01*
Y259500D02*
Y263437D01*
X457342D02*
X459784D01*
X332283Y350500D02*
X334724D01*
X332283D02*
Y354437D01*
X329842D02*
X332283D01*
Y346563D02*
Y350500D01*
X329842Y346563D02*
X332283D01*
X315276Y350500D02*
X317717D01*
Y354437D01*
X320158D01*
X317717Y346563D02*
Y350500D01*
Y346563D02*
X320158D01*
X248276Y399500D02*
X250716D01*
Y395563D02*
Y399500D01*
Y395563D02*
X253157D01*
X250716Y399500D02*
Y403437D01*
X253157D01*
X265283Y399500D02*
X267724D01*
X265283Y395563D02*
Y399500D01*
X262842Y395563D02*
X265283D01*
Y399500D02*
Y403437D01*
X262842D02*
X265283D01*
X357784Y266500D02*
X360224D01*
X357784D02*
Y270437D01*
X355343D02*
X357784D01*
Y262563D02*
Y266500D01*
X355343Y262563D02*
X357784D01*
X340776Y266500D02*
X343216D01*
Y270437D01*
X345657D01*
X343216Y262563D02*
Y266500D01*
Y262563D02*
X345657D01*
X272284Y270500D02*
X274724D01*
X272284D02*
Y274437D01*
X269843D02*
X272284D01*
Y266563D02*
Y270500D01*
X269843Y266563D02*
X272284D01*
X255276Y270500D02*
X257716D01*
Y274437D01*
X260157D01*
X257716Y266563D02*
Y270500D01*
Y266563D02*
X260157D01*
X351842Y341437D02*
X354283D01*
Y337500D02*
Y341437D01*
X351842Y333563D02*
X354283D01*
Y337500D01*
X356724D01*
X339717Y341437D02*
X342158D01*
X339717Y337500D02*
Y341437D01*
Y333563D02*
X342158D01*
X339717D02*
Y337500D01*
X337276D02*
X339717D01*
X537500Y282500D02*
Y304940D01*
Y345060D02*
Y367500D01*
X457500Y282500D02*
Y294940D01*
Y355060D02*
Y367500D01*
X467500Y272500D02*
X527500D01*
X467500Y377500D02*
X527500D01*
X352166Y265500D02*
Y267500D01*
X351166D01*
X350833Y267166D01*
Y266500D01*
X351166Y266167D01*
X352166D01*
X351500D02*
X350833Y265500D01*
X350167Y267166D02*
X349833Y267500D01*
X349167D01*
X348834Y267166D01*
Y266833D01*
X349167Y266500D01*
X348834Y266167D01*
Y265834D01*
X349167Y265500D01*
X349833D01*
X350167Y265834D01*
Y266167D01*
X349833Y266500D01*
X350167Y266833D01*
Y267166D01*
X349833Y266500D02*
X349167D01*
X352166Y285000D02*
Y287000D01*
X351166D01*
X350833Y286666D01*
Y286000D01*
X351166Y285667D01*
X352166D01*
X351500D02*
X350833Y285000D01*
X350167Y287000D02*
X348834D01*
Y286666D01*
X350167Y285334D01*
Y285000D01*
X326666Y349500D02*
Y351500D01*
X325666D01*
X325333Y351167D01*
Y350500D01*
X325666Y350167D01*
X326666D01*
X326000D02*
X325333Y349500D01*
X323334Y351500D02*
X324000Y351167D01*
X324667Y350500D01*
Y349834D01*
X324334Y349500D01*
X323667D01*
X323334Y349834D01*
Y350167D01*
X323667Y350500D01*
X324667D01*
X348666Y336000D02*
Y338000D01*
X347666D01*
X347333Y337667D01*
Y337000D01*
X347666Y336667D01*
X348666D01*
X348000D02*
X347333Y336000D01*
X345334Y338000D02*
X346667D01*
Y337000D01*
X346000Y337333D01*
X345667D01*
X345334Y337000D01*
Y336334D01*
X345667Y336000D01*
X346334D01*
X346667Y336334D01*
X266265Y269500D02*
Y271500D01*
X265265D01*
X264932Y271166D01*
Y270500D01*
X265265Y270167D01*
X266265D01*
X265598D02*
X264932Y269500D01*
X263265D02*
Y271500D01*
X264265Y270500D01*
X262932D01*
X259666Y398500D02*
Y400500D01*
X258666D01*
X258333Y400167D01*
Y399500D01*
X258666Y399167D01*
X259666D01*
X259000D02*
X258333Y398500D01*
X257667Y400167D02*
X257333Y400500D01*
X256667D01*
X256334Y400167D01*
Y399833D01*
X256667Y399500D01*
X257000D01*
X256667D01*
X256334Y399167D01*
Y398834D01*
X256667Y398500D01*
X257333D01*
X257667Y398834D01*
X549166Y258500D02*
Y260500D01*
X548166D01*
X547833Y260167D01*
Y259500D01*
X548166Y259167D01*
X549166D01*
X548500D02*
X547833Y258500D01*
X545834D02*
X547167D01*
X545834Y259833D01*
Y260167D01*
X546167Y260500D01*
X546834D01*
X547167Y260167D01*
X453833Y258500D02*
Y260500D01*
X452833D01*
X452500Y260167D01*
Y259500D01*
X452833Y259167D01*
X453833D01*
X453166D02*
X452500Y258500D01*
X451834D02*
X451167D01*
X451500D01*
Y260500D01*
X451834Y260167D01*
D13*
X556300Y371000D02*
G03*
X558700Y371000I1200J0D01*
G01*
M02*
