G04*
G04 #@! TF.GenerationSoftware,Altium Limited,Altium Designer,24.4.1 (13)*
G04*
G04 Layer_Color=8388736*
%FSLAX25Y25*%
%MOIN*%
G70*
G04*
G04 #@! TF.SameCoordinates,ED40C71A-466C-4DCB-BD38-2C2FE6726D77*
G04*
G04*
G04 #@! TF.FilePolarity,Negative*
G04*
G01*
G75*
G04:AMPARAMS|DCode=21|XSize=86.74mil|YSize=47.37mil|CornerRadius=0mil|HoleSize=0mil|Usage=FLASHONLY|Rotation=45.000|XOffset=0mil|YOffset=0mil|HoleType=Round|Shape=Rectangle|*
%AMROTATEDRECTD21*
4,1,4,-0.01392,-0.04742,-0.04742,-0.01392,0.01392,0.04742,0.04742,0.01392,-0.01392,-0.04742,0.0*
%
%ADD21ROTATEDRECTD21*%

G04:AMPARAMS|DCode=22|XSize=86.74mil|YSize=78.87mil|CornerRadius=0mil|HoleSize=0mil|Usage=FLASHONLY|Rotation=45.000|XOffset=0mil|YOffset=0mil|HoleType=Round|Shape=Rectangle|*
%AMROTATEDRECTD22*
4,1,4,-0.00278,-0.05855,-0.05855,-0.00278,0.00278,0.05855,0.05855,0.00278,-0.00278,-0.05855,0.0*
%
%ADD22ROTATEDRECTD22*%

%ADD23C,0.07800*%
%ADD24C,0.05328*%
%ADD25R,0.06147X0.06147*%
%ADD26C,0.06147*%
%ADD27C,0.05950*%
%ADD28R,0.05950X0.05950*%
%ADD29C,0.05131*%
%ADD30C,0.07887*%
%ADD31R,0.07887X0.07887*%
%ADD32O,0.12611X0.24422*%
%ADD33C,0.07099*%
%ADD34R,0.07099X0.07099*%
%ADD35C,0.06700*%
%ADD36R,0.06700X0.06700*%
%ADD37O,0.12800X0.06800*%
%ADD38C,0.08674*%
%ADD39R,0.06737X0.06737*%
%ADD40C,0.06737*%
%ADD41R,0.07119X0.07119*%
%ADD42C,0.07119*%
%ADD43R,0.07119X0.07119*%
%ADD44C,0.08400*%
%ADD45C,0.06194*%
%ADD46R,0.06194X0.06194*%
%ADD47P,0.10068X4X100.0*%
%ADD48R,0.06737X0.06737*%
%ADD49C,0.03950*%
G36*
X311791Y313756D02*
X315531D01*
Y308244D01*
X311791D01*
Y304307D01*
X303130D01*
Y308244D01*
X300571D01*
Y313756D01*
X303130D01*
Y317693D01*
X311791D01*
Y313756D01*
D02*
G37*
G36*
X331870D02*
X334429D01*
Y308244D01*
X331870D01*
Y304307D01*
X323209D01*
Y308244D01*
X319468D01*
Y313756D01*
X323209D01*
Y317693D01*
X331870D01*
Y313756D01*
D02*
G37*
G36*
X348291D02*
X352031D01*
Y308244D01*
X348291D01*
Y304307D01*
X339630D01*
Y308244D01*
X337071D01*
Y313756D01*
X339630D01*
Y317693D01*
X348291D01*
Y313756D01*
D02*
G37*
G36*
X368370D02*
X370929D01*
Y308244D01*
X368370D01*
Y304307D01*
X359709D01*
Y308244D01*
X355968D01*
Y313756D01*
X359709D01*
Y317693D01*
X368370D01*
Y313756D01*
D02*
G37*
D21*
X488365Y224364D02*
D03*
X484397Y228331D02*
D03*
X492332Y220397D02*
D03*
X514603Y242669D02*
D03*
X510636Y246636D02*
D03*
X506669Y250603D02*
D03*
D22*
X488225Y246775D02*
D03*
X510775Y224225D02*
D03*
D23*
X384000Y381500D02*
D03*
X374000Y381500D02*
D03*
X364000Y381500D02*
D03*
D24*
X381500Y261579D02*
D03*
Y271421D02*
D03*
X404921Y383000D02*
D03*
X395079D02*
D03*
X381500Y291421D02*
D03*
Y281579D02*
D03*
X414579Y383000D02*
D03*
X424421D02*
D03*
D25*
X393657Y268701D02*
D03*
Y292701D02*
D03*
Y244701D02*
D03*
Y220701D02*
D03*
X240166Y409604D02*
D03*
D26*
X393657Y281299D02*
D03*
X403500Y268701D02*
D03*
Y281299D02*
D03*
X413343Y268701D02*
D03*
Y281299D02*
D03*
X393657Y305299D02*
D03*
X403500Y292701D02*
D03*
Y305299D02*
D03*
X413343Y292701D02*
D03*
Y305299D02*
D03*
Y257299D02*
D03*
Y244701D02*
D03*
X403500Y257299D02*
D03*
Y244701D02*
D03*
X393657Y257299D02*
D03*
X413343Y233299D02*
D03*
Y220701D02*
D03*
X403500Y233299D02*
D03*
Y220701D02*
D03*
X393657Y233299D02*
D03*
X240166Y422203D02*
D03*
X250008Y409604D02*
D03*
Y422203D02*
D03*
X259851Y409604D02*
D03*
Y422203D02*
D03*
D27*
X300000Y261500D02*
D03*
Y251500D02*
D03*
X371000Y261500D02*
D03*
Y251500D02*
D03*
X300000Y241500D02*
D03*
Y271500D02*
D03*
X371000D02*
D03*
Y241500D02*
D03*
X300000Y281500D02*
D03*
X371000D02*
D03*
X300000Y231500D02*
D03*
X371000D02*
D03*
Y291500D02*
D03*
X300000Y221500D02*
D03*
X371000D02*
D03*
D28*
X300000Y291500D02*
D03*
D29*
X363098Y286000D02*
D03*
X337902D02*
D03*
X534902Y259500D02*
D03*
X560098D02*
D03*
X439902D02*
D03*
X465098D02*
D03*
X337598Y350500D02*
D03*
X312402D02*
D03*
X245402Y399500D02*
D03*
X270598D02*
D03*
X363098Y266500D02*
D03*
X337902D02*
D03*
X277598Y270500D02*
D03*
X252402D02*
D03*
X359598Y337500D02*
D03*
X334402D02*
D03*
X504789Y230211D02*
D03*
D30*
X409342Y372028D02*
D03*
X389657D02*
D03*
X399500D02*
D03*
X389657Y314941D02*
D03*
D31*
X409342D02*
D03*
D32*
X421547Y342500D02*
D03*
X377453D02*
D03*
D33*
X235500Y335500D02*
D03*
Y345500D02*
D03*
Y355500D02*
D03*
Y365500D02*
D03*
Y375500D02*
D03*
Y385500D02*
D03*
Y395500D02*
D03*
X295500D02*
D03*
Y385500D02*
D03*
Y375500D02*
D03*
Y365500D02*
D03*
Y355500D02*
D03*
Y345500D02*
D03*
D34*
Y335500D02*
D03*
D35*
X542500Y365000D02*
D03*
Y355000D02*
D03*
Y345000D02*
D03*
Y335000D02*
D03*
Y325000D02*
D03*
Y315000D02*
D03*
Y305000D02*
D03*
Y295000D02*
D03*
Y285000D02*
D03*
X572500D02*
D03*
Y295000D02*
D03*
Y305000D02*
D03*
Y315000D02*
D03*
Y325000D02*
D03*
Y335000D02*
D03*
Y345000D02*
D03*
Y355000D02*
D03*
D36*
Y365000D02*
D03*
D37*
X464800Y226600D02*
D03*
Y244400D02*
D03*
X439200Y226600D02*
D03*
Y244400D02*
D03*
X534200D02*
D03*
Y226600D02*
D03*
X559800Y244400D02*
D03*
Y226600D02*
D03*
D38*
X405961Y414500D02*
D03*
X376039D02*
D03*
D39*
X484500Y373500D02*
D03*
X276008Y415904D02*
D03*
D40*
X494500Y373500D02*
D03*
X504500D02*
D03*
X514500D02*
D03*
X322000Y403000D02*
D03*
X351921D02*
D03*
X580000Y372500D02*
D03*
Y267500D02*
D03*
X286008Y415904D02*
D03*
D41*
X360508Y364904D02*
D03*
D42*
X350508D02*
D03*
X340508D02*
D03*
X330508D02*
D03*
X320508D02*
D03*
X310508D02*
D03*
X423008Y428404D02*
D03*
Y396404D02*
D03*
X309368Y427096D02*
D03*
X583000Y300000D02*
D03*
Y310000D02*
D03*
Y320000D02*
D03*
Y330000D02*
D03*
Y340000D02*
D03*
D43*
X423008Y418404D02*
D03*
Y406404D02*
D03*
X583000Y350000D02*
D03*
D44*
X532500Y320000D02*
D03*
Y330000D02*
D03*
Y310000D02*
D03*
Y340000D02*
D03*
X462500Y320000D02*
D03*
Y330000D02*
D03*
Y310000D02*
D03*
Y340000D02*
D03*
Y300000D02*
D03*
Y350000D02*
D03*
D45*
X285508Y289904D02*
D03*
X275508D02*
D03*
X265508D02*
D03*
X255508D02*
D03*
D46*
X245508D02*
D03*
D47*
X303632Y418904D02*
D03*
D48*
X580000Y382500D02*
D03*
Y277500D02*
D03*
D49*
X494211Y240789D02*
D03*
M02*
