G04*
G04 #@! TF.GenerationSoftware,Altium Limited,Altium Designer,24.4.1 (13)*
G04*
G04 Layer_Color=16711935*
%FSLAX25Y25*%
%MOIN*%
G70*
G04*
G04 #@! TF.SameCoordinates,ED40C71A-466C-4DCB-BD38-2C2FE6726D77*
G04*
G04*
G04 #@! TF.FilePolarity,Positive*
G04*
G01*
G75*
%ADD12C,0.00500*%
%ADD14C,0.01000*%
%ADD82C,0.05000*%
D12*
X410245Y414404D02*
G03*
X410245Y414404I-19237J0D01*
G01*
D14*
X447062Y388557D02*
G03*
X444062Y385562I-2J-2998D01*
G01*
X555062D02*
G03*
X552062Y388557I-2998J-2D01*
G01*
Y382567D02*
G03*
X555062Y385562I2J2998D01*
G01*
X444062D02*
G03*
X447062Y382567I2998J2D01*
G01*
X503472Y446102D02*
G03*
X507472Y442102I4000J0D01*
G01*
X495652Y446102D02*
G03*
X491652Y449971I-3935J-65D01*
G01*
Y442102D02*
G03*
X495652Y446102I0J4000D01*
G01*
X507472Y449971D02*
G03*
X503472Y446102I-65J-3935D01*
G01*
X554972Y211102D02*
G03*
X551971Y214097I-2998J-2D01*
G01*
Y208107D02*
G03*
X554972Y211102I2J2998D01*
G01*
X444062Y439062D02*
G03*
X447062Y436067I2998J2D01*
G01*
X303972Y438841D02*
G03*
X306972Y435846I2998J2D01*
G01*
Y441836D02*
G03*
X303972Y438841I-2J-2998D01*
G01*
X303881Y210881D02*
G03*
X306881Y207886I2998J2D01*
G01*
Y213876D02*
G03*
X303881Y210881I-2J-2998D01*
G01*
X552062Y436067D02*
G03*
X555062Y439062I2J2998D01*
G01*
D02*
G03*
X552062Y442057I-2998J-2D01*
G01*
X355471Y203841D02*
G03*
X351471Y207841I-4000J0D01*
G01*
Y199971D02*
G03*
X355471Y203841I65J3935D01*
G01*
X367291Y207841D02*
G03*
X363291Y203841I0J-4000D01*
G01*
X503381Y204062D02*
G03*
X507381Y199971I4045J-45D01*
G01*
X495562Y204062D02*
G03*
X491562Y208062I-4000J0D01*
G01*
Y200062D02*
G03*
X495562Y204062I0J4000D01*
G01*
X363291Y203841D02*
G03*
X367291Y199971I3935J65D01*
G01*
X507381Y208062D02*
G03*
X503381Y204062I0J-4000D01*
G01*
X411972Y435846D02*
G03*
X414971Y438841I2J2998D01*
G01*
X363381Y445881D02*
G03*
X367381Y441881I4000J0D01*
G01*
X355562Y445881D02*
G03*
X351562Y449971I-4045J45D01*
G01*
X414971Y438841D02*
G03*
X411972Y441836I-2998J-2D01*
G01*
X367381Y449881D02*
G03*
X363381Y445881I0J-4000D01*
G01*
X351562Y441881D02*
G03*
X355562Y445881I0J4000D01*
G01*
X447062Y442057D02*
G03*
X444062Y439062I-2J-2998D01*
G01*
X443971Y211102D02*
G03*
X446972Y208107I2998J2D01*
G01*
X411881Y207886D02*
G03*
X414881Y210881I2J2998D01*
G01*
X446972Y214097D02*
G03*
X443971Y211102I-2J-2998D01*
G01*
X414881Y210881D02*
G03*
X411881Y213876I-2998J-2D01*
G01*
X507472Y388602D02*
X552062Y388557D01*
X491652Y388602D02*
X507472D01*
X447041Y436067D02*
X552041D01*
X447062Y388557D02*
X491652Y388602D01*
X447041Y382567D02*
X552041D01*
X429471Y449971D02*
X491652D01*
X507472Y442102D02*
X552062Y442057D01*
X447041Y436067D02*
X552041D01*
X447062Y442057D02*
X491652Y442102D01*
X507381Y208062D02*
X551971Y208107D01*
X236063Y234499D02*
X237000Y316000D01*
X241000Y229500D02*
X280500D01*
X285500Y215500D02*
Y224500D01*
X446992Y214096D02*
X551992D01*
X306902Y213876D02*
X411902D01*
X367381Y441881D02*
X411972Y441836D01*
X306951Y435847D02*
X411951D01*
X367381Y449971D02*
X429471D01*
X306972Y441836D02*
X351562Y441881D01*
X237000Y425500D02*
X280500D01*
X367291Y207841D02*
X411881Y207886D01*
X306881D02*
X351471Y207841D01*
X429471Y199971D02*
X491562D01*
X367291D02*
X429471D01*
X446972Y208107D02*
X491562Y208062D01*
D82*
X303140Y418308D02*
X308876Y426499D01*
M02*
