G04*
G04 #@! TF.GenerationSoftware,Altium Limited,Altium Designer,24.4.1 (13)*
G04*
G04 Layer_Color=2752767*
%FSLAX25Y25*%
%MOIN*%
G70*
G04*
G04 #@! TF.SameCoordinates,ED40C71A-466C-4DCB-BD38-2C2FE6726D77*
G04*
G04*
G04 #@! TF.FilePolarity,Positive*
G04*
G01*
G75*
%ADD12C,0.00500*%
%ADD89C,0.00667*%
%ADD90C,0.00400*%
D12*
X382000Y381500D02*
X384000Y383500D01*
X386000Y381500D01*
X384000Y379500D01*
X382000Y381500D01*
X372000Y381500D02*
X374000Y383500D01*
X376000Y381500D01*
X374000Y379500D01*
X372000Y381500D01*
X362000Y381500D02*
X364000Y383500D01*
X366000Y381500D01*
X364000Y379500D01*
X362000Y381500D01*
X380500Y260579D02*
Y259579D01*
X382500D01*
Y260579D01*
X383500D01*
Y262579D01*
X382500D01*
Y263579D01*
X380500D01*
Y262579D01*
X379500D01*
Y260579D01*
X380500D01*
Y270421D02*
Y269421D01*
X382500D01*
Y270421D01*
X383500D01*
Y272421D01*
X382500D01*
Y273421D01*
X380500D01*
Y272421D01*
X379500D01*
Y270421D01*
X380500D01*
X299000Y260500D02*
Y259500D01*
X301000D01*
Y260500D01*
X302000D01*
Y262500D01*
X301000D01*
Y263500D01*
X299000D01*
Y262500D01*
X298000D01*
Y260500D01*
X299000D01*
Y250500D02*
Y249500D01*
X301000D01*
Y250500D01*
X302000D01*
Y252500D01*
X301000D01*
Y253500D01*
X299000D01*
Y252500D01*
X298000D01*
Y250500D01*
X299000D01*
X370000Y260500D02*
Y259500D01*
X372000D01*
Y260500D01*
X373000D01*
Y262500D01*
X372000D01*
Y263500D01*
X370000D01*
Y262500D01*
X369000D01*
Y260500D01*
X370000D01*
Y250500D02*
Y249500D01*
X372000D01*
Y250500D01*
X373000D01*
Y252500D01*
X372000D01*
Y253500D01*
X370000D01*
Y252500D01*
X369000D01*
Y250500D01*
X370000D01*
X299000Y240500D02*
Y239500D01*
X301000D01*
Y240500D01*
X302000D01*
Y242500D01*
X301000D01*
Y243500D01*
X299000D01*
Y242500D01*
X298000D01*
Y240500D01*
X299000D01*
Y270500D02*
Y269500D01*
X301000D01*
Y270500D01*
X302000D01*
Y272500D01*
X301000D01*
Y273500D01*
X299000D01*
Y272500D01*
X298000D01*
Y270500D01*
X299000D01*
X370000D02*
Y269500D01*
X372000D01*
Y270500D01*
X373000D01*
Y272500D01*
X372000D01*
Y273500D01*
X370000D01*
Y272500D01*
X369000D01*
Y270500D01*
X370000D01*
Y240500D02*
Y239500D01*
X372000D01*
Y240500D01*
X373000D01*
Y242500D01*
X372000D01*
Y243500D01*
X370000D01*
Y242500D01*
X369000D01*
Y240500D01*
X370000D01*
X299000Y280500D02*
Y279500D01*
X301000D01*
Y280500D01*
X302000D01*
Y282500D01*
X301000D01*
Y283500D01*
X299000D01*
Y282500D01*
X298000D01*
Y280500D01*
X299000D01*
X370000D02*
Y279500D01*
X372000D01*
Y280500D01*
X373000D01*
Y282500D01*
X372000D01*
Y283500D01*
X370000D01*
Y282500D01*
X369000D01*
Y280500D01*
X370000D01*
X299000Y230500D02*
Y229500D01*
X301000D01*
Y230500D01*
X302000D01*
Y232500D01*
X301000D01*
Y233500D01*
X299000D01*
Y232500D01*
X298000D01*
Y230500D01*
X299000D01*
X370000D02*
Y229500D01*
X372000D01*
Y230500D01*
X373000D01*
Y232500D01*
X372000D01*
Y233500D01*
X370000D01*
Y232500D01*
X369000D01*
Y230500D01*
X370000D01*
X299000Y290500D02*
Y289500D01*
X301000D01*
Y290500D01*
X302000D01*
Y292500D01*
X301000D01*
Y293500D01*
X299000D01*
Y292500D01*
X298000D01*
Y290500D01*
X299000D01*
X370000D02*
Y289500D01*
X372000D01*
Y290500D01*
X373000D01*
Y292500D01*
X372000D01*
Y293500D01*
X370000D01*
Y292500D01*
X369000D01*
Y290500D01*
X370000D01*
X299000Y220500D02*
Y219500D01*
X301000D01*
Y220500D01*
X302000D01*
Y222500D01*
X301000D01*
Y223500D01*
X299000D01*
Y222500D01*
X298000D01*
Y220500D01*
X299000D01*
X370000D02*
Y219500D01*
X372000D01*
Y220500D01*
X373000D01*
Y222500D01*
X372000D01*
Y223500D01*
X370000D01*
Y222500D01*
X369000D01*
Y220500D01*
X370000D01*
X363098Y284000D02*
X364098Y285000D01*
X365098D01*
X364098Y286000D01*
X365098Y287000D01*
X364098D01*
X363098Y288000D01*
X362098Y287000D01*
X361098D01*
X362098Y286000D01*
X361098Y285000D01*
X362098D01*
X363098Y284000D01*
X337902D02*
X338902Y285000D01*
X339902D01*
X338902Y286000D01*
X339902Y287000D01*
X338902D01*
X337902Y288000D01*
X336902Y287000D01*
X335902D01*
X336902Y286000D01*
X335902Y285000D01*
X336902D01*
X337902Y284000D01*
X403921Y382000D02*
Y381000D01*
X405921D01*
Y382000D01*
X406921D01*
Y384000D01*
X405921D01*
Y385000D01*
X403921D01*
Y384000D01*
X402921D01*
Y382000D01*
X403921D01*
X394079D02*
Y381000D01*
X396079D01*
Y382000D01*
X397079D01*
Y384000D01*
X396079D01*
Y385000D01*
X394079D01*
Y384000D01*
X393079D01*
Y382000D01*
X394079D01*
X380500Y290421D02*
Y289421D01*
X382500D01*
Y290421D01*
X383500D01*
Y292421D01*
X382500D01*
Y293421D01*
X380500D01*
Y292421D01*
X379500D01*
Y290421D01*
X380500D01*
Y280579D02*
Y279579D01*
X382500D01*
Y280579D01*
X383500D01*
Y282579D01*
X382500D01*
Y283579D01*
X380500D01*
Y282579D01*
X379500D01*
Y280579D01*
X380500D01*
X409342Y370028D02*
X407342Y374028D01*
X411342D01*
X409342Y370028D01*
Y370828D02*
X408143Y373228D01*
X410542D01*
X409342Y370828D01*
X389657Y370028D02*
X387657Y374028D01*
X391657D01*
X389657Y370028D01*
Y370828D02*
X388457Y373228D01*
X390858D01*
X389657Y370828D01*
X399500Y370028D02*
X397500Y374028D01*
X401500D01*
X399500Y370028D01*
Y370828D02*
X398300Y373228D01*
X400700D01*
X399500Y370828D01*
X409342Y312941D02*
X407342Y316941D01*
X411342D01*
X409342Y312941D01*
Y313741D02*
X408143Y316141D01*
X410542D01*
X409342Y313741D01*
X389657Y312941D02*
X387657Y316941D01*
X391657D01*
X389657Y312941D01*
Y313741D02*
X388457Y316141D01*
X390858D01*
X389657Y313741D01*
X233500Y333500D02*
X234500Y335500D01*
X233500Y337500D01*
X235500Y336500D01*
X237500Y337500D01*
X236500Y335500D01*
X237500Y333500D01*
X235500Y334500D01*
X233500Y333500D01*
Y343500D02*
X234500Y345500D01*
X233500Y347500D01*
X235500Y346500D01*
X237500Y347500D01*
X236500Y345500D01*
X237500Y343500D01*
X235500Y344500D01*
X233500Y343500D01*
Y353500D02*
X234500Y355500D01*
X233500Y357500D01*
X235500Y356500D01*
X237500Y357500D01*
X236500Y355500D01*
X237500Y353500D01*
X235500Y354500D01*
X233500Y353500D01*
Y363500D02*
X234500Y365500D01*
X233500Y367500D01*
X235500Y366500D01*
X237500Y367500D01*
X236500Y365500D01*
X237500Y363500D01*
X235500Y364500D01*
X233500Y363500D01*
Y373500D02*
X234500Y375500D01*
X233500Y377500D01*
X235500Y376500D01*
X237500Y377500D01*
X236500Y375500D01*
X237500Y373500D01*
X235500Y374500D01*
X233500Y373500D01*
Y383500D02*
X234500Y385500D01*
X233500Y387500D01*
X235500Y386500D01*
X237500Y387500D01*
X236500Y385500D01*
X237500Y383500D01*
X235500Y384500D01*
X233500Y383500D01*
Y393500D02*
X234500Y395500D01*
X233500Y397500D01*
X235500Y396500D01*
X237500Y397500D01*
X236500Y395500D01*
X237500Y393500D01*
X235500Y394500D01*
X233500Y393500D01*
X293500D02*
X294500Y395500D01*
X293500Y397500D01*
X295500Y396500D01*
X297500Y397500D01*
X296500Y395500D01*
X297500Y393500D01*
X295500Y394500D01*
X293500Y393500D01*
Y383500D02*
X294500Y385500D01*
X293500Y387500D01*
X295500Y386500D01*
X297500Y387500D01*
X296500Y385500D01*
X297500Y383500D01*
X295500Y384500D01*
X293500Y383500D01*
Y373500D02*
X294500Y375500D01*
X293500Y377500D01*
X295500Y376500D01*
X297500Y377500D01*
X296500Y375500D01*
X297500Y373500D01*
X295500Y374500D01*
X293500Y373500D01*
Y363500D02*
X294500Y365500D01*
X293500Y367500D01*
X295500Y366500D01*
X297500Y367500D01*
X296500Y365500D01*
X297500Y363500D01*
X295500Y364500D01*
X293500Y363500D01*
Y353500D02*
X294500Y355500D01*
X293500Y357500D01*
X295500Y356500D01*
X297500Y357500D01*
X296500Y355500D01*
X297500Y353500D01*
X295500Y354500D01*
X293500Y353500D01*
Y343500D02*
X294500Y345500D01*
X293500Y347500D01*
X295500Y346500D01*
X297500Y347500D01*
X296500Y345500D01*
X297500Y343500D01*
X295500Y344500D01*
X293500Y343500D01*
Y333500D02*
X294500Y335500D01*
X293500Y337500D01*
X295500Y336500D01*
X297500Y337500D01*
X296500Y335500D01*
X297500Y333500D01*
X295500Y334500D01*
X293500Y333500D01*
X540500Y363000D02*
Y367000D01*
X544500D01*
Y363000D01*
X540500D01*
X541300Y363800D02*
Y366200D01*
X543700D01*
Y363800D01*
X541300D01*
X540500Y353000D02*
Y357000D01*
X544500D01*
Y353000D01*
X540500D01*
X541300Y353800D02*
Y356200D01*
X543700D01*
Y353800D01*
X541300D01*
X540500Y343000D02*
Y347000D01*
X544500D01*
Y343000D01*
X540500D01*
X541300Y343800D02*
Y346200D01*
X543700D01*
Y343800D01*
X541300D01*
X540500Y333000D02*
Y337000D01*
X544500D01*
Y333000D01*
X540500D01*
X541300Y333800D02*
Y336200D01*
X543700D01*
Y333800D01*
X541300D01*
X540500Y323000D02*
Y327000D01*
X544500D01*
Y323000D01*
X540500D01*
X541300Y323800D02*
Y326200D01*
X543700D01*
Y323800D01*
X541300D01*
X540500Y313000D02*
Y317000D01*
X544500D01*
Y313000D01*
X540500D01*
X541300Y313800D02*
Y316200D01*
X543700D01*
Y313800D01*
X541300D01*
X540500Y303000D02*
Y307000D01*
X544500D01*
Y303000D01*
X540500D01*
X541300Y303800D02*
Y306200D01*
X543700D01*
Y303800D01*
X541300D01*
X540500Y293000D02*
Y297000D01*
X544500D01*
Y293000D01*
X540500D01*
X541300Y293800D02*
Y296200D01*
X543700D01*
Y293800D01*
X541300D01*
X540500Y283000D02*
Y287000D01*
X544500D01*
Y283000D01*
X540500D01*
X541300Y283800D02*
Y286200D01*
X543700D01*
Y283800D01*
X541300D01*
X570500Y283000D02*
Y287000D01*
X574500D01*
Y283000D01*
X570500D01*
X571300Y283800D02*
Y286200D01*
X573700D01*
Y283800D01*
X571300D01*
X570500Y293000D02*
Y297000D01*
X574500D01*
Y293000D01*
X570500D01*
X571300Y293800D02*
Y296200D01*
X573700D01*
Y293800D01*
X571300D01*
X570500Y303000D02*
Y307000D01*
X574500D01*
Y303000D01*
X570500D01*
X571300Y303800D02*
Y306200D01*
X573700D01*
Y303800D01*
X571300D01*
X570500Y313000D02*
Y317000D01*
X574500D01*
Y313000D01*
X570500D01*
X571300Y313800D02*
Y316200D01*
X573700D01*
Y313800D01*
X571300D01*
X570500Y323000D02*
Y327000D01*
X574500D01*
Y323000D01*
X570500D01*
X571300Y323800D02*
Y326200D01*
X573700D01*
Y323800D01*
X571300D01*
X570500Y333000D02*
Y337000D01*
X574500D01*
Y333000D01*
X570500D01*
X571300Y333800D02*
Y336200D01*
X573700D01*
Y333800D01*
X571300D01*
X570500Y343000D02*
Y347000D01*
X574500D01*
Y343000D01*
X570500D01*
X571300Y343800D02*
Y346200D01*
X573700D01*
Y343800D01*
X571300D01*
X570500Y353000D02*
Y357000D01*
X574500D01*
Y353000D01*
X570500D01*
X571300Y353800D02*
Y356200D01*
X573700D01*
Y353800D01*
X571300D01*
X570500Y363000D02*
Y367000D01*
X574500D01*
Y363000D01*
X570500D01*
X571300Y363800D02*
Y366200D01*
X573700D01*
Y363800D01*
X571300D01*
X462800Y226600D02*
X464800Y228600D01*
X466800Y226600D01*
X464800Y224600D01*
X462800Y226600D01*
Y244400D02*
X464800Y246400D01*
X466800Y244400D01*
X464800Y242400D01*
X462800Y244400D01*
X437200Y226600D02*
X439200Y228600D01*
X441200Y226600D01*
X439200Y224600D01*
X437200Y226600D01*
Y244400D02*
X439200Y246400D01*
X441200Y244400D01*
X439200Y242400D01*
X437200Y244400D01*
X532200D02*
X534200Y246400D01*
X536200Y244400D01*
X534200Y242400D01*
X532200Y244400D01*
Y226600D02*
X534200Y228600D01*
X536200Y226600D01*
X534200Y224600D01*
X532200Y226600D01*
X557800Y244400D02*
X559800Y246400D01*
X561800Y244400D01*
X559800Y242400D01*
X557800Y244400D01*
Y226600D02*
X559800Y228600D01*
X561800Y226600D01*
X559800Y224600D01*
X557800Y226600D01*
X534902Y257500D02*
X535902Y258500D01*
X536902D01*
X535902Y259500D01*
X536902Y260500D01*
X535902D01*
X534902Y261500D01*
X533902Y260500D01*
X532902D01*
X533902Y259500D01*
X532902Y258500D01*
X533902D01*
X534902Y257500D01*
X560098D02*
X561098Y258500D01*
X562098D01*
X561098Y259500D01*
X562098Y260500D01*
X561098D01*
X560098Y261500D01*
X559098Y260500D01*
X558098D01*
X559098Y259500D01*
X558098Y258500D01*
X559098D01*
X560098Y257500D01*
X439902D02*
X440902Y258500D01*
X441902D01*
X440902Y259500D01*
X441902Y260500D01*
X440902D01*
X439902Y261500D01*
X438902Y260500D01*
X437902D01*
X438902Y259500D01*
X437902Y258500D01*
X438902D01*
X439902Y257500D01*
X465098D02*
X466098Y258500D01*
X467098D01*
X466098Y259500D01*
X467098Y260500D01*
X466098D01*
X465098Y261500D01*
X464098Y260500D01*
X463098D01*
X464098Y259500D01*
X463098Y258500D01*
X464098D01*
X465098Y257500D01*
X337598Y348500D02*
X338598Y349500D01*
X339598D01*
X338598Y350500D01*
X339598Y351500D01*
X338598D01*
X337598Y352500D01*
X336598Y351500D01*
X335598D01*
X336598Y350500D01*
X335598Y349500D01*
X336598D01*
X337598Y348500D01*
X312402D02*
X313402Y349500D01*
X314402D01*
X313402Y350500D01*
X314402Y351500D01*
X313402D01*
X312402Y352500D01*
X311402Y351500D01*
X310402D01*
X311402Y350500D01*
X310402Y349500D01*
X311402D01*
X312402Y348500D01*
X245402Y397500D02*
X246402Y398500D01*
X247402D01*
X246402Y399500D01*
X247402Y400500D01*
X246402D01*
X245402Y401500D01*
X244402Y400500D01*
X243402D01*
X244402Y399500D01*
X243402Y398500D01*
X244402D01*
X245402Y397500D01*
X270598D02*
X271598Y398500D01*
X272598D01*
X271598Y399500D01*
X272598Y400500D01*
X271598D01*
X270598Y401500D01*
X269598Y400500D01*
X268598D01*
X269598Y399500D01*
X268598Y398500D01*
X269598D01*
X270598Y397500D01*
X363098Y264500D02*
X364098Y265500D01*
X365098D01*
X364098Y266500D01*
X365098Y267500D01*
X364098D01*
X363098Y268500D01*
X362098Y267500D01*
X361098D01*
X362098Y266500D01*
X361098Y265500D01*
X362098D01*
X363098Y264500D01*
X337902D02*
X338902Y265500D01*
X339902D01*
X338902Y266500D01*
X339902Y267500D01*
X338902D01*
X337902Y268500D01*
X336902Y267500D01*
X335902D01*
X336902Y266500D01*
X335902Y265500D01*
X336902D01*
X337902Y264500D01*
X277598Y268500D02*
X278598Y269500D01*
X279598D01*
X278598Y270500D01*
X279598Y271500D01*
X278598D01*
X277598Y272500D01*
X276598Y271500D01*
X275598D01*
X276598Y270500D01*
X275598Y269500D01*
X276598D01*
X277598Y268500D01*
X252402D02*
X253402Y269500D01*
X254402D01*
X253402Y270500D01*
X254402Y271500D01*
X253402D01*
X252402Y272500D01*
X251402Y271500D01*
X250402D01*
X251402Y270500D01*
X250402Y269500D01*
X251402D01*
X252402Y268500D01*
X413579Y382000D02*
Y381000D01*
X415579D01*
Y382000D01*
X416579D01*
Y384000D01*
X415579D01*
Y385000D01*
X413579D01*
Y384000D01*
X412579D01*
Y382000D01*
X413579D01*
X423421D02*
Y381000D01*
X425421D01*
Y382000D01*
X426421D01*
Y384000D01*
X425421D01*
Y385000D01*
X423421D01*
Y384000D01*
X422421D01*
Y382000D01*
X423421D01*
X404961Y413500D02*
Y412500D01*
X406961D01*
Y413500D01*
X407961D01*
Y415500D01*
X406961D01*
Y416500D01*
X404961D01*
Y415500D01*
X403961D01*
Y413500D01*
X404961D01*
X375039D02*
Y412500D01*
X377039D01*
Y413500D01*
X378039D01*
Y415500D01*
X377039D01*
Y416500D01*
X375039D01*
Y415500D01*
X374039D01*
Y413500D01*
X375039D01*
X482500Y371500D02*
X483500Y373500D01*
X482500Y375500D01*
X484500Y374500D01*
X486500Y375500D01*
X485500Y373500D01*
X486500Y371500D01*
X484500Y372500D01*
X482500Y371500D01*
X492500D02*
X493500Y373500D01*
X492500Y375500D01*
X494500Y374500D01*
X496500Y375500D01*
X495500Y373500D01*
X496500Y371500D01*
X494500Y372500D01*
X492500Y371500D01*
X502500D02*
X503500Y373500D01*
X502500Y375500D01*
X504500Y374500D01*
X506500Y375500D01*
X505500Y373500D01*
X506500Y371500D01*
X504500Y372500D01*
X502500Y371500D01*
X512500D02*
X513500Y373500D01*
X512500Y375500D01*
X514500Y374500D01*
X516500Y375500D01*
X515500Y373500D01*
X516500Y371500D01*
X514500Y372500D01*
X512500Y371500D01*
X360508Y362904D02*
X358508Y366904D01*
X362508D01*
X360508Y362904D01*
X350508D02*
X348508Y366904D01*
X352508D01*
X350508Y362904D01*
X340508D02*
X338508Y366904D01*
X342508D01*
X340508Y362904D01*
X330508D02*
X328508Y366904D01*
X332508D01*
X330508Y362904D01*
X320508D02*
X318508Y366904D01*
X322508D01*
X320508Y362904D01*
X310508D02*
X308508Y366904D01*
X312508D01*
X310508Y362904D01*
X320000Y401000D02*
X321000Y403000D01*
X320000Y405000D01*
X322000Y404000D01*
X324000Y405000D01*
X323000Y403000D01*
X324000Y401000D01*
X322000Y402000D01*
X320000Y401000D01*
X349921D02*
X350921Y403000D01*
X349921Y405000D01*
X351921Y404000D01*
X353921Y405000D01*
X352921Y403000D01*
X353921Y401000D01*
X351921Y402000D01*
X349921Y401000D01*
X423008Y426404D02*
X421008Y430404D01*
X425008D01*
X423008Y426404D01*
Y416404D02*
X421008Y420404D01*
X425008D01*
X423008Y416404D01*
Y394404D02*
X421008Y398404D01*
X425008D01*
X423008Y394404D01*
Y404404D02*
X421008Y408404D01*
X425008D01*
X423008Y404404D01*
X359598Y335500D02*
X360598Y336500D01*
X361598D01*
X360598Y337500D01*
X361598Y338500D01*
X360598D01*
X359598Y339500D01*
X358598Y338500D01*
X357598D01*
X358598Y337500D01*
X357598Y336500D01*
X358598D01*
X359598Y335500D01*
X334402D02*
X335402Y336500D01*
X336402D01*
X335402Y337500D01*
X336402Y338500D01*
X335402D01*
X334402Y339500D01*
X333402Y338500D01*
X332402D01*
X333402Y337500D01*
X332402Y336500D01*
X333402D01*
X334402Y335500D01*
X530500Y318000D02*
X531500Y320000D01*
X530500Y322000D01*
X532500Y321000D01*
X534500Y322000D01*
X533500Y320000D01*
X534500Y318000D01*
X532500Y319000D01*
X530500Y318000D01*
Y328000D02*
X531500Y330000D01*
X530500Y332000D01*
X532500Y331000D01*
X534500Y332000D01*
X533500Y330000D01*
X534500Y328000D01*
X532500Y329000D01*
X530500Y328000D01*
Y308000D02*
X531500Y310000D01*
X530500Y312000D01*
X532500Y311000D01*
X534500Y312000D01*
X533500Y310000D01*
X534500Y308000D01*
X532500Y309000D01*
X530500Y308000D01*
Y338000D02*
X531500Y340000D01*
X530500Y342000D01*
X532500Y341000D01*
X534500Y342000D01*
X533500Y340000D01*
X534500Y338000D01*
X532500Y339000D01*
X530500Y338000D01*
X460500Y318000D02*
X461500Y320000D01*
X460500Y322000D01*
X462500Y321000D01*
X464500Y322000D01*
X463500Y320000D01*
X464500Y318000D01*
X462500Y319000D01*
X460500Y318000D01*
Y328000D02*
X461500Y330000D01*
X460500Y332000D01*
X462500Y331000D01*
X464500Y332000D01*
X463500Y330000D01*
X464500Y328000D01*
X462500Y329000D01*
X460500Y328000D01*
Y308000D02*
X461500Y310000D01*
X460500Y312000D01*
X462500Y311000D01*
X464500Y312000D01*
X463500Y310000D01*
X464500Y308000D01*
X462500Y309000D01*
X460500Y308000D01*
Y338000D02*
X461500Y340000D01*
X460500Y342000D01*
X462500Y341000D01*
X464500Y342000D01*
X463500Y340000D01*
X464500Y338000D01*
X462500Y339000D01*
X460500Y338000D01*
Y298000D02*
X461500Y300000D01*
X460500Y302000D01*
X462500Y301000D01*
X464500Y302000D01*
X463500Y300000D01*
X464500Y298000D01*
X462500Y299000D01*
X460500Y298000D01*
Y348000D02*
X461500Y350000D01*
X460500Y352000D01*
X462500Y351000D01*
X464500Y352000D01*
X463500Y350000D01*
X464500Y348000D01*
X462500Y349000D01*
X460500Y348000D01*
X283508Y287904D02*
Y291904D01*
X287508D01*
Y287904D01*
X283508D01*
X273508D02*
Y291904D01*
X277508D01*
Y287904D01*
X273508D01*
X263508D02*
Y291904D01*
X267508D01*
Y287904D01*
X263508D01*
X253508D02*
Y291904D01*
X257508D01*
Y287904D01*
X253508D01*
X243508D02*
Y291904D01*
X247508D01*
Y287904D01*
X243508D01*
X309368Y425096D02*
X307368Y429096D01*
X311368D01*
X309368Y425096D01*
X303632Y416904D02*
X301632Y420904D01*
X305632D01*
X303632Y416904D01*
X583000Y298000D02*
X581000Y302000D01*
X585000D01*
X583000Y298000D01*
Y308000D02*
X581000Y312000D01*
X585000D01*
X583000Y308000D01*
Y318000D02*
X581000Y322000D01*
X585000D01*
X583000Y318000D01*
Y328000D02*
X581000Y332000D01*
X585000D01*
X583000Y328000D01*
Y338000D02*
X581000Y342000D01*
X585000D01*
X583000Y338000D01*
Y348000D02*
X581000Y352000D01*
X585000D01*
X583000Y348000D01*
X578000Y370500D02*
X579000Y372500D01*
X578000Y374500D01*
X580000Y373500D01*
X582000Y374500D01*
X581000Y372500D01*
X582000Y370500D01*
X580000Y371500D01*
X578000Y370500D01*
Y380500D02*
X579000Y382500D01*
X578000Y384500D01*
X580000Y383500D01*
X582000Y384500D01*
X581000Y382500D01*
X582000Y380500D01*
X580000Y381500D01*
X578000Y380500D01*
Y265500D02*
X579000Y267500D01*
X578000Y269500D01*
X580000Y268500D01*
X582000Y269500D01*
X581000Y267500D01*
X582000Y265500D01*
X580000Y266500D01*
X578000Y265500D01*
Y275500D02*
X579000Y277500D01*
X578000Y279500D01*
X580000Y278500D01*
X582000Y279500D01*
X581000Y277500D01*
X582000Y275500D01*
X580000Y276500D01*
X578000Y275500D01*
X284008Y413904D02*
X285008Y415904D01*
X284008Y417904D01*
X286008Y416904D01*
X288008Y417904D01*
X287008Y415904D01*
X288008Y413904D01*
X286008Y414904D01*
X284008Y413904D01*
X274008D02*
X275008Y415904D01*
X274008Y417904D01*
X276008Y416904D01*
X278008Y417904D01*
X277008Y415904D01*
X278008Y413904D01*
X276008Y414904D01*
X274008Y413904D01*
X494211Y238789D02*
X495211Y239789D01*
X496211D01*
X495211Y240789D01*
X496211Y241789D01*
X495211D01*
X494211Y242789D01*
X493211Y241789D01*
X492211D01*
X493211Y240789D01*
X492211Y239789D01*
X493211D01*
X494211Y238789D01*
Y239589D02*
X494811Y240189D01*
X495411D01*
X494811Y240789D01*
X495411Y241389D01*
X494811D01*
X494211Y241989D01*
X493611Y241389D01*
X493011D01*
X493611Y240789D01*
X493011Y240189D01*
X493611D01*
X494211Y239589D01*
X502789Y228211D02*
X503789Y230211D01*
X502789Y232211D01*
X504789Y231211D01*
X506789Y232211D01*
X505789Y230211D01*
X506789Y228211D01*
X504789Y229211D01*
X502789Y228211D01*
X503589Y229011D02*
X504189Y230211D01*
X503589Y231411D01*
X504789Y230811D01*
X505989Y231411D01*
X505389Y230211D01*
X505989Y229011D01*
X504789Y229611D01*
X503589Y229011D01*
X306000Y376500D02*
X307000D01*
X308000Y377500D01*
X309000Y376500D01*
X310000D01*
Y377500D01*
X309000Y378500D01*
X310000Y379500D01*
Y380500D01*
X309000D01*
X308000Y379500D01*
X307000Y380500D01*
X306000D01*
Y379500D01*
X307000Y378500D01*
X306000Y377500D01*
Y376500D01*
X393500Y360000D02*
X394500D01*
X395500Y361000D01*
X396500Y360000D01*
X397500D01*
Y361000D01*
X396500Y362000D01*
X397500Y363000D01*
Y364000D01*
X396500D01*
X395500Y363000D01*
X394500Y364000D01*
X393500D01*
Y363000D01*
X394500Y362000D01*
X393500Y361000D01*
Y360000D01*
X425000Y273000D02*
X426000D01*
X427000Y274000D01*
X428000Y273000D01*
X429000D01*
Y274000D01*
X428000Y275000D01*
X429000Y276000D01*
Y277000D01*
X428000D01*
X427000Y276000D01*
X426000Y277000D01*
X425000D01*
Y276000D01*
X426000Y275000D01*
X425000Y274000D01*
Y273000D01*
X411500D02*
X412500D01*
X413500Y274000D01*
X414500Y273000D01*
X415500D01*
Y274000D01*
X414500Y275000D01*
X415500Y276000D01*
Y277000D01*
X414500D01*
X413500Y276000D01*
X412500Y277000D01*
X411500D01*
Y276000D01*
X412500Y275000D01*
X411500Y274000D01*
Y273000D01*
X333329Y303171D02*
X334329D01*
X335329Y304171D01*
X336329Y303171D01*
X337329D01*
Y304171D01*
X336329Y305171D01*
X337329Y306171D01*
Y307171D01*
X336329D01*
X335329Y306171D01*
X334329Y307171D01*
X333329D01*
Y306171D01*
X334329Y305171D01*
X333329Y304171D01*
Y303171D01*
X347500Y325500D02*
X348500D01*
X349500Y326500D01*
X350500Y325500D01*
X351500D01*
Y326500D01*
X350500Y327500D01*
X351500Y328500D01*
Y329500D01*
X350500D01*
X349500Y328500D01*
X348500Y329500D01*
X347500D01*
Y328500D01*
X348500Y327500D01*
X347500Y326500D01*
Y325500D01*
X367000D02*
X368000D01*
X369000Y326500D01*
X370000Y325500D01*
X371000D01*
Y326500D01*
X370000Y327500D01*
X371000Y328500D01*
Y329500D01*
X370000D01*
X369000Y328500D01*
X368000Y329500D01*
X367000D01*
Y328500D01*
X368000Y327500D01*
X367000Y326500D01*
Y325500D01*
X349500Y292500D02*
X350500D01*
X351500Y293500D01*
X352500Y292500D01*
X353500D01*
Y293500D01*
X352500Y294500D01*
X353500Y295500D01*
Y296500D01*
X352500D01*
X351500Y295500D01*
X350500Y296500D01*
X349500D01*
Y295500D01*
X350500Y294500D01*
X349500Y293500D01*
Y292500D01*
X326500Y387500D02*
X327500D01*
X328500Y388500D01*
X329500Y387500D01*
X330500D01*
Y388500D01*
X329500Y389500D01*
X330500Y390500D01*
Y391500D01*
X329500D01*
X328500Y390500D01*
X327500Y391500D01*
X326500D01*
Y390500D01*
X327500Y389500D01*
X326500Y388500D01*
Y387500D01*
X389000Y389500D02*
X390000D01*
X391000Y390500D01*
X392000Y389500D01*
X393000D01*
Y390500D01*
X392000Y391500D01*
X393000Y392500D01*
Y393500D01*
X392000D01*
X391000Y392500D01*
X390000Y393500D01*
X389000D01*
Y392500D01*
X390000Y391500D01*
X389000Y390500D01*
Y389500D01*
X410500Y398500D02*
X411500D01*
X412500Y399500D01*
X413500Y398500D01*
X414500D01*
Y399500D01*
X413500Y400500D01*
X414500Y401500D01*
Y402500D01*
X413500D01*
X412500Y401500D01*
X411500Y402500D01*
X410500D01*
Y401500D01*
X411500Y400500D01*
X410500Y399500D01*
Y398500D01*
X261500Y386500D02*
X262500D01*
X263500Y387500D01*
X264500Y386500D01*
X265500D01*
Y387500D01*
X264500Y388500D01*
X265500Y389500D01*
Y390500D01*
X264500D01*
X263500Y389500D01*
X262500Y390500D01*
X261500D01*
Y389500D01*
X262500Y388500D01*
X261500Y387500D01*
Y386500D01*
X293000Y313000D02*
X294000D01*
X295000Y314000D01*
X296000Y313000D01*
X297000D01*
Y314000D01*
X296000Y315000D01*
X297000Y316000D01*
Y317000D01*
X296000D01*
X295000Y316000D01*
X294000Y317000D01*
X293000D01*
Y316000D01*
X294000Y315000D01*
X293000Y314000D01*
Y313000D01*
X278500Y328000D02*
X279500D01*
X280500Y329000D01*
X281500Y328000D01*
X282500D01*
Y329000D01*
X281500Y330000D01*
X282500Y331000D01*
Y332000D01*
X281500D01*
X280500Y331000D01*
X279500Y332000D01*
X278500D01*
Y331000D01*
X279500Y330000D01*
X278500Y329000D01*
Y328000D01*
X286500Y421000D02*
X287500D01*
X288500Y422000D01*
X289500Y421000D01*
X290500D01*
Y422000D01*
X289500Y423000D01*
X290500Y424000D01*
Y425000D01*
X289500D01*
X288500Y424000D01*
X287500Y425000D01*
X286500D01*
Y424000D01*
X287500Y423000D01*
X286500Y422000D01*
Y421000D01*
X310000Y416500D02*
X311000D01*
X312000Y417500D01*
X313000Y416500D01*
X314000D01*
Y417500D01*
X313000Y418500D01*
X314000Y419500D01*
Y420500D01*
X313000D01*
X312000Y419500D01*
X311000Y420500D01*
X310000D01*
Y419500D01*
X311000Y418500D01*
X310000Y417500D01*
Y416500D01*
X312250Y404500D02*
X313250D01*
X314250Y405500D01*
X315250Y404500D01*
X316250D01*
Y405500D01*
X315250Y406500D01*
X316250Y407500D01*
Y408500D01*
X315250D01*
X314250Y407500D01*
X313250Y408500D01*
X312250D01*
Y407500D01*
X313250Y406500D01*
X312250Y405500D01*
Y404500D01*
X343526Y409694D02*
X344526D01*
X345526Y410695D01*
X346526Y409694D01*
X347526D01*
Y410695D01*
X346526Y411694D01*
X347526Y412695D01*
Y413694D01*
X346526D01*
X345526Y412695D01*
X344526Y413694D01*
X343526D01*
Y412695D01*
X344526Y411694D01*
X343526Y410695D01*
Y409694D01*
X319635Y413000D02*
X320635D01*
X321635Y414000D01*
X322635Y413000D01*
X323635D01*
Y414000D01*
X322635Y415000D01*
X323635Y416000D01*
Y417000D01*
X322635D01*
X321635Y416000D01*
X320635Y417000D01*
X319635D01*
Y416000D01*
X320635Y415000D01*
X319635Y414000D01*
Y413000D01*
X332000Y393000D02*
X333000D01*
X334000Y394000D01*
X335000Y393000D01*
X336000D01*
Y394000D01*
X335000Y395000D01*
X336000Y396000D01*
Y397000D01*
X335000D01*
X334000Y396000D01*
X333000Y397000D01*
X332000D01*
Y396000D01*
X333000Y395000D01*
X332000Y394000D01*
Y393000D01*
X326500Y381500D02*
X327500D01*
X328500Y382500D01*
X329500Y381500D01*
X330500D01*
Y382500D01*
X329500Y383500D01*
X330500Y384500D01*
Y385500D01*
X329500D01*
X328500Y384500D01*
X327500Y385500D01*
X326500D01*
Y384500D01*
X327500Y383500D01*
X326500Y382500D01*
Y381500D01*
X369569Y369500D02*
X370569D01*
X371569Y370500D01*
X372569Y369500D01*
X373569D01*
Y370500D01*
X372569Y371500D01*
X373569Y372500D01*
Y373500D01*
X372569D01*
X371569Y372500D01*
X370569Y373500D01*
X369569D01*
Y372500D01*
X370569Y371500D01*
X369569Y370500D01*
Y369500D01*
X378000Y371492D02*
X379000D01*
X380000Y372492D01*
X381000Y371492D01*
X382000D01*
Y372492D01*
X381000Y373492D01*
X382000Y374492D01*
Y375492D01*
X381000D01*
X380000Y374492D01*
X379000Y375492D01*
X378000D01*
Y374492D01*
X379000Y373492D01*
X378000Y372492D01*
Y371492D01*
X451500Y359000D02*
X452500D01*
X453500Y360000D01*
X454500Y359000D01*
X455500D01*
Y360000D01*
X454500Y361000D01*
X455500Y362000D01*
Y363000D01*
X454500D01*
X453500Y362000D01*
X452500Y363000D01*
X451500D01*
Y362000D01*
X452500Y361000D01*
X451500Y360000D01*
Y359000D01*
X521000Y355000D02*
X522000D01*
X523000Y356000D01*
X524000Y355000D01*
X525000D01*
Y356000D01*
X524000Y357000D01*
X525000Y358000D01*
Y359000D01*
X524000D01*
X523000Y358000D01*
X522000Y359000D01*
X521000D01*
Y358000D01*
X522000Y357000D01*
X521000Y356000D01*
Y355000D01*
X303000Y387500D02*
X304000D01*
X305000Y388500D01*
X306000Y387500D01*
X307000D01*
Y388500D01*
X306000Y389500D01*
X307000Y390500D01*
Y391500D01*
X306000D01*
X305000Y390500D01*
X304000Y391500D01*
X303000D01*
Y390500D01*
X304000Y389500D01*
X303000Y388500D01*
Y387500D01*
X438000Y345000D02*
X439000D01*
X440000Y346000D01*
X441000Y345000D01*
X442000D01*
Y346000D01*
X441000Y347000D01*
X442000Y348000D01*
Y349000D01*
X441000D01*
X440000Y348000D01*
X439000Y349000D01*
X438000D01*
Y348000D01*
X439000Y347000D01*
X438000Y346000D01*
Y345000D01*
X249500Y346500D02*
X250500D01*
X251500Y347500D01*
X252500Y346500D01*
X253500D01*
Y347500D01*
X252500Y348500D01*
X253500Y349500D01*
Y350500D01*
X252500D01*
X251500Y349500D01*
X250500Y350500D01*
X249500D01*
Y349500D01*
X250500Y348500D01*
X249500Y347500D01*
Y346500D01*
X263500Y312000D02*
X264500D01*
X265500Y313000D01*
X266500Y312000D01*
X267500D01*
Y313000D01*
X266500Y314000D01*
X267500Y315000D01*
Y316000D01*
X266500D01*
X265500Y315000D01*
X264500Y316000D01*
X263500D01*
Y315000D01*
X264500Y314000D01*
X263500Y313000D01*
Y312000D01*
X284500Y270000D02*
X285500D01*
X286500Y271000D01*
X287500Y270000D01*
X288500D01*
Y271000D01*
X287500Y272000D01*
X288500Y273000D01*
Y274000D01*
X287500D01*
X286500Y273000D01*
X285500Y274000D01*
X284500D01*
Y273000D01*
X285500Y272000D01*
X284500Y271000D01*
Y270000D01*
X372500Y356561D02*
X373500D01*
X374500Y357561D01*
X375500Y356561D01*
X376500D01*
Y357561D01*
X375500Y358561D01*
X376500Y359561D01*
Y360561D01*
X375500D01*
X374500Y359561D01*
X373500Y360561D01*
X372500D01*
Y359561D01*
X373500Y358561D01*
X372500Y357561D01*
Y356561D01*
X337500Y414000D02*
X338500D01*
X339500Y415000D01*
X340500Y414000D01*
X341500D01*
Y415000D01*
X340500Y416000D01*
X341500Y417000D01*
Y418000D01*
X340500D01*
X339500Y417000D01*
X338500Y418000D01*
X337500D01*
Y417000D01*
X338500Y416000D01*
X337500Y415000D01*
Y414000D01*
X388000Y419500D02*
X389000D01*
X390000Y420500D01*
X391000Y419500D01*
X392000D01*
Y420500D01*
X391000Y421500D01*
X392000Y422500D01*
Y423500D01*
X391000D01*
X390000Y422500D01*
X389000Y423500D01*
X388000D01*
Y422500D01*
X389000Y421500D01*
X388000Y420500D01*
Y419500D01*
X314944Y354444D02*
X315944D01*
X316944Y355444D01*
X317944Y354444D01*
X318944D01*
Y355444D01*
X317944Y356444D01*
X318944Y357444D01*
Y358444D01*
X317944D01*
X316944Y357444D01*
X315944Y358444D01*
X314944D01*
Y357444D01*
X315944Y356444D01*
X314944Y355444D01*
Y354444D01*
X240000Y339000D02*
X241000D01*
X242000Y340000D01*
X243000Y339000D01*
X244000D01*
Y340000D01*
X243000Y341000D01*
X244000Y342000D01*
Y343000D01*
X243000D01*
X242000Y342000D01*
X241000Y343000D01*
X240000D01*
Y342000D01*
X241000Y341000D01*
X240000Y340000D01*
Y339000D01*
X242500Y309500D02*
X243500D01*
X244500Y310500D01*
X245500Y309500D01*
X246500D01*
Y310500D01*
X245500Y311500D01*
X246500Y312500D01*
Y313500D01*
X245500D01*
X244500Y312500D01*
X243500Y313500D01*
X242500D01*
Y312500D01*
X243500Y311500D01*
X242500Y310500D01*
Y309500D01*
X257750Y329750D02*
X258750D01*
X259750Y330750D01*
X260750Y329750D01*
X261750D01*
Y330750D01*
X260750Y331750D01*
X261750Y332750D01*
Y333750D01*
X260750D01*
X259750Y332750D01*
X258750Y333750D01*
X257750D01*
Y332750D01*
X258750Y331750D01*
X257750Y330750D01*
Y329750D01*
X264000Y338000D02*
X265000D01*
X266000Y339000D01*
X267000Y338000D01*
X268000D01*
Y339000D01*
X267000Y340000D01*
X268000Y341000D01*
Y342000D01*
X267000D01*
X266000Y341000D01*
X265000Y342000D01*
X264000D01*
Y341000D01*
X265000Y340000D01*
X264000Y339000D01*
Y338000D01*
X362902Y418598D02*
X363902D01*
X364902Y419598D01*
X365902Y418598D01*
X366902D01*
Y419598D01*
X365902Y420598D01*
X366902Y421598D01*
Y422598D01*
X365902D01*
X364902Y421598D01*
X363902Y422598D01*
X362902D01*
Y421598D01*
X363902Y420598D01*
X362902Y419598D01*
Y418598D01*
X370500Y303500D02*
X371500D01*
X372500Y304500D01*
X373500Y303500D01*
X374500D01*
Y304500D01*
X373500Y305500D01*
X374500Y306500D01*
Y307500D01*
X373500D01*
X372500Y306500D01*
X371500Y307500D01*
X370500D01*
Y306500D01*
X371500Y305500D01*
X370500Y304500D01*
Y303500D01*
X389000Y323000D02*
X390000D01*
X391000Y324000D01*
X392000Y323000D01*
X393000D01*
Y324000D01*
X392000Y325000D01*
X393000Y326000D01*
Y327000D01*
X392000D01*
X391000Y326000D01*
X390000Y327000D01*
X389000D01*
Y326000D01*
X390000Y325000D01*
X389000Y324000D01*
Y323000D01*
X381500Y300500D02*
X382500D01*
X383500Y301500D01*
X384500Y300500D01*
X385500D01*
Y301500D01*
X384500Y302500D01*
X385500Y303500D01*
Y304500D01*
X384500D01*
X383500Y303500D01*
X382500Y304500D01*
X381500D01*
Y303500D01*
X382500Y302500D01*
X381500Y301500D01*
Y300500D01*
X356000Y259000D02*
X357000D01*
X358000Y260000D01*
X359000Y259000D01*
X360000D01*
Y260000D01*
X359000Y261000D01*
X360000Y262000D01*
Y263000D01*
X359000D01*
X358000Y262000D01*
X357000Y263000D01*
X356000D01*
Y262000D01*
X357000Y261000D01*
X356000Y260000D01*
Y259000D01*
Y248000D02*
X357000D01*
X358000Y249000D01*
X359000Y248000D01*
X360000D01*
Y249000D01*
X359000Y250000D01*
X360000Y251000D01*
Y252000D01*
X359000D01*
X358000Y251000D01*
X357000Y252000D01*
X356000D01*
Y251000D01*
X357000Y250000D01*
X356000Y249000D01*
Y248000D01*
X348000Y349000D02*
X349000D01*
X350000Y350000D01*
X351000Y349000D01*
X352000D01*
Y350000D01*
X351000Y351000D01*
X352000Y352000D01*
Y353000D01*
X351000D01*
X350000Y352000D01*
X349000Y353000D01*
X348000D01*
Y352000D01*
X349000Y351000D01*
X348000Y350000D01*
Y349000D01*
X352091Y348591D02*
X353091D01*
X354091Y349591D01*
X355091Y348591D01*
X356091D01*
Y349591D01*
X355091Y350591D01*
X356091Y351591D01*
Y352591D01*
X355091D01*
X354091Y351591D01*
X353091Y352591D01*
X352091D01*
Y351591D01*
X353091Y350591D01*
X352091Y349591D01*
Y348591D01*
X401500Y386000D02*
X402500D01*
X403500Y387000D01*
X404500Y386000D01*
X405500D01*
Y387000D01*
X404500Y388000D01*
X405500Y389000D01*
Y390000D01*
X404500D01*
X403500Y389000D01*
X402500Y390000D01*
X401500D01*
Y389000D01*
X402500Y388000D01*
X401500Y387000D01*
Y386000D01*
X270500Y337500D02*
X271500D01*
X272500Y338500D01*
X273500Y337500D01*
X274500D01*
Y338500D01*
X273500Y339500D01*
X274500Y340500D01*
Y341500D01*
X273500D01*
X272500Y340500D01*
X271500Y341500D01*
X270500D01*
Y340500D01*
X271500Y339500D01*
X270500Y338500D01*
Y337500D01*
X292500Y324000D02*
X293500D01*
X294500Y325000D01*
X295500Y324000D01*
X296500D01*
Y325000D01*
X295500Y326000D01*
X296500Y327000D01*
Y328000D01*
X295500D01*
X294500Y327000D01*
X293500Y328000D01*
X292500D01*
Y327000D01*
X293500Y326000D01*
X292500Y325000D01*
Y324000D01*
X352000Y287000D02*
X353000D01*
X354000Y288000D01*
X355000Y287000D01*
X356000D01*
Y288000D01*
X355000Y289000D01*
X356000Y290000D01*
Y291000D01*
X355000D01*
X354000Y290000D01*
X353000Y291000D01*
X352000D01*
Y290000D01*
X353000Y289000D01*
X352000Y288000D01*
Y287000D01*
X359000Y294500D02*
X360000D01*
X361000Y295500D01*
X362000Y294500D01*
X363000D01*
Y295500D01*
X362000Y296500D01*
X363000Y297500D01*
Y298500D01*
X362000D01*
X361000Y297500D01*
X360000Y298500D01*
X359000D01*
Y297500D01*
X360000Y296500D01*
X359000Y295500D01*
Y294500D01*
X263000Y378500D02*
X264000D01*
X265000Y379500D01*
X266000Y378500D01*
X267000D01*
Y379500D01*
X266000Y380500D01*
X267000Y381500D01*
Y382500D01*
X266000D01*
X265000Y381500D01*
X264000Y382500D01*
X263000D01*
Y381500D01*
X264000Y380500D01*
X263000Y379500D01*
Y378500D01*
X518000Y254000D02*
Y253000D01*
X520000D01*
Y254000D01*
X521000D01*
Y256000D01*
X520000D01*
Y257000D01*
X518000D01*
Y256000D01*
X517000D01*
Y254000D01*
X518000D01*
X518400Y254400D02*
Y253800D01*
X519600D01*
Y254400D01*
X520200D01*
Y255600D01*
X519600D01*
Y256200D01*
X518400D01*
Y255600D01*
X517800D01*
Y254400D01*
X518400D01*
X385500Y259500D02*
Y258500D01*
X387500D01*
Y259500D01*
X388500D01*
Y261500D01*
X387500D01*
Y262500D01*
X385500D01*
Y261500D01*
X384500D01*
Y259500D01*
X385500D01*
X385900Y259900D02*
Y259300D01*
X387100D01*
Y259900D01*
X387700D01*
Y261100D01*
X387100D01*
Y261700D01*
X385900D01*
Y261100D01*
X385300D01*
Y259900D01*
X385900D01*
X385500Y253000D02*
Y252000D01*
X387500D01*
Y253000D01*
X388500D01*
Y255000D01*
X387500D01*
Y256000D01*
X385500D01*
Y255000D01*
X384500D01*
Y253000D01*
X385500D01*
X385900Y253400D02*
Y252800D01*
X387100D01*
Y253400D01*
X387700D01*
Y254600D01*
X387100D01*
Y255200D01*
X385900D01*
Y254600D01*
X385300D01*
Y253400D01*
X385900D01*
X301250Y384000D02*
Y383000D01*
X303250D01*
Y384000D01*
X304250D01*
Y386000D01*
X303250D01*
Y387000D01*
X301250D01*
Y386000D01*
X300250D01*
Y384000D01*
X301250D01*
X301650Y384400D02*
Y383800D01*
X302850D01*
Y384400D01*
X303450D01*
Y385600D01*
X302850D01*
Y386200D01*
X301650D01*
Y385600D01*
X301050D01*
Y384400D01*
X301650D01*
X300000Y345500D02*
Y344500D01*
X302000D01*
Y345500D01*
X303000D01*
Y347500D01*
X302000D01*
Y348500D01*
X300000D01*
Y347500D01*
X299000D01*
Y345500D01*
X300000D01*
X300400Y345900D02*
Y345300D01*
X301600D01*
Y345900D01*
X302200D01*
Y347100D01*
X301600D01*
Y347700D01*
X300400D01*
Y347100D01*
X299800D01*
Y345900D01*
X300400D01*
X312000Y338000D02*
Y337000D01*
X314000D01*
Y338000D01*
X315000D01*
Y340000D01*
X314000D01*
Y341000D01*
X312000D01*
Y340000D01*
X311000D01*
Y338000D01*
X312000D01*
X312400Y338400D02*
Y337800D01*
X313600D01*
Y338400D01*
X314200D01*
Y339600D01*
X313600D01*
Y340200D01*
X312400D01*
Y339600D01*
X311800D01*
Y338400D01*
X312400D01*
X326892Y341000D02*
Y340000D01*
X328892D01*
Y341000D01*
X329892D01*
Y343000D01*
X328892D01*
Y344000D01*
X326892D01*
Y343000D01*
X325892D01*
Y341000D01*
X326892D01*
X327292Y341400D02*
Y340800D01*
X328492D01*
Y341400D01*
X329092D01*
Y342600D01*
X328492D01*
Y343200D01*
X327292D01*
Y342600D01*
X326692D01*
Y341400D01*
X327292D01*
X357000Y349500D02*
Y348500D01*
X359000D01*
Y349500D01*
X360000D01*
Y351500D01*
X359000D01*
Y352500D01*
X357000D01*
Y351500D01*
X356000D01*
Y349500D01*
X357000D01*
X357400Y349900D02*
Y349300D01*
X358600D01*
Y349900D01*
X359200D01*
Y351100D01*
X358600D01*
Y351700D01*
X357400D01*
Y351100D01*
X356800D01*
Y349900D01*
X357400D01*
X370000Y352000D02*
Y351000D01*
X372000D01*
Y352000D01*
X373000D01*
Y354000D01*
X372000D01*
Y355000D01*
X370000D01*
Y354000D01*
X369000D01*
Y352000D01*
X370000D01*
X370400Y352400D02*
Y351800D01*
X371600D01*
Y352400D01*
X372200D01*
Y353600D01*
X371600D01*
Y354200D01*
X370400D01*
Y353600D01*
X369800D01*
Y352400D01*
X370400D01*
X379660Y357500D02*
Y356500D01*
X381660D01*
Y357500D01*
X382660D01*
Y359500D01*
X381660D01*
Y360500D01*
X379660D01*
Y359500D01*
X378660D01*
Y357500D01*
X379660D01*
X380060Y357900D02*
Y357300D01*
X381260D01*
Y357900D01*
X381860D01*
Y359100D01*
X381260D01*
Y359700D01*
X380060D01*
Y359100D01*
X379460D01*
Y357900D01*
X380060D01*
X387000Y344000D02*
Y343000D01*
X389000D01*
Y344000D01*
X390000D01*
Y346000D01*
X389000D01*
Y347000D01*
X387000D01*
Y346000D01*
X386000D01*
Y344000D01*
X387000D01*
X387400Y344400D02*
Y343800D01*
X388600D01*
Y344400D01*
X389200D01*
Y345600D01*
X388600D01*
Y346200D01*
X387400D01*
Y345600D01*
X386800D01*
Y344400D01*
X387400D01*
X395000Y339000D02*
Y338000D01*
X397000D01*
Y339000D01*
X398000D01*
Y341000D01*
X397000D01*
Y342000D01*
X395000D01*
Y341000D01*
X394000D01*
Y339000D01*
X395000D01*
X395400Y339400D02*
Y338800D01*
X396600D01*
Y339400D01*
X397200D01*
Y340600D01*
X396600D01*
Y341200D01*
X395400D01*
Y340600D01*
X394800D01*
Y339400D01*
X395400D01*
X432000Y321500D02*
Y320500D01*
X434000D01*
Y321500D01*
X435000D01*
Y323500D01*
X434000D01*
Y324500D01*
X432000D01*
Y323500D01*
X431000D01*
Y321500D01*
X432000D01*
X432400Y321900D02*
Y321300D01*
X433600D01*
Y321900D01*
X434200D01*
Y323100D01*
X433600D01*
Y323700D01*
X432400D01*
Y323100D01*
X431800D01*
Y321900D01*
X432400D01*
X498000Y281000D02*
Y280000D01*
X500000D01*
Y281000D01*
X501000D01*
Y283000D01*
X500000D01*
Y284000D01*
X498000D01*
Y283000D01*
X497000D01*
Y281000D01*
X498000D01*
X498400Y281400D02*
Y280800D01*
X499600D01*
Y281400D01*
X500200D01*
Y282600D01*
X499600D01*
Y283200D01*
X498400D01*
Y282600D01*
X497800D01*
Y281400D01*
X498400D01*
X517000Y281586D02*
Y280586D01*
X519000D01*
Y281586D01*
X520000D01*
Y283586D01*
X519000D01*
Y284586D01*
X517000D01*
Y283586D01*
X516000D01*
Y281586D01*
X517000D01*
X517400Y281986D02*
Y281386D01*
X518600D01*
Y281986D01*
X519200D01*
Y283186D01*
X518600D01*
Y283786D01*
X517400D01*
Y283186D01*
X516800D01*
Y281986D01*
X517400D01*
X552500Y324500D02*
Y323500D01*
X554500D01*
Y324500D01*
X555500D01*
Y326500D01*
X554500D01*
Y327500D01*
X552500D01*
Y326500D01*
X551500D01*
Y324500D01*
X552500D01*
X552900Y324900D02*
Y324300D01*
X554100D01*
Y324900D01*
X554700D01*
Y326100D01*
X554100D01*
Y326700D01*
X552900D01*
Y326100D01*
X552300D01*
Y324900D01*
X552900D01*
X558500Y304000D02*
Y303000D01*
X560500D01*
Y304000D01*
X561500D01*
Y306000D01*
X560500D01*
Y307000D01*
X558500D01*
Y306000D01*
X557500D01*
Y304000D01*
X558500D01*
X558900Y304400D02*
Y303800D01*
X560100D01*
Y304400D01*
X560700D01*
Y305600D01*
X560100D01*
Y306200D01*
X558900D01*
Y305600D01*
X558300D01*
Y304400D01*
X558900D01*
X553500Y294500D02*
Y293500D01*
X555500D01*
Y294500D01*
X556500D01*
Y296500D01*
X555500D01*
Y297500D01*
X553500D01*
Y296500D01*
X552500D01*
Y294500D01*
X553500D01*
X553900Y294900D02*
Y294300D01*
X555100D01*
Y294900D01*
X555700D01*
Y296100D01*
X555100D01*
Y296700D01*
X553900D01*
Y296100D01*
X553300D01*
Y294900D01*
X553900D01*
X546500Y271500D02*
Y270500D01*
X548500D01*
Y271500D01*
X549500D01*
Y273500D01*
X548500D01*
Y274500D01*
X546500D01*
Y273500D01*
X545500D01*
Y271500D01*
X546500D01*
X546900Y271900D02*
Y271300D01*
X548100D01*
Y271900D01*
X548700D01*
Y273100D01*
X548100D01*
Y273700D01*
X546900D01*
Y273100D01*
X546300D01*
Y271900D01*
X546900D01*
X556637Y268363D02*
Y267363D01*
X558637D01*
Y268363D01*
X559637D01*
Y270363D01*
X558637D01*
Y271363D01*
X556637D01*
Y270363D01*
X555637D01*
Y268363D01*
X556637D01*
X557037Y268763D02*
Y268163D01*
X558237D01*
Y268763D01*
X558837D01*
Y269963D01*
X558237D01*
Y270563D01*
X557037D01*
Y269963D01*
X556437D01*
Y268763D01*
X557037D01*
X524392Y342051D02*
Y341051D01*
X526392D01*
Y342051D01*
X527392D01*
Y344051D01*
X526392D01*
Y345051D01*
X524392D01*
Y344051D01*
X523392D01*
Y342051D01*
X524392D01*
X524792Y342451D02*
Y341851D01*
X525992D01*
Y342451D01*
X526592D01*
Y343651D01*
X525992D01*
Y344251D01*
X524792D01*
Y343651D01*
X524192D01*
Y342451D01*
X524792D01*
X521500Y322500D02*
Y321500D01*
X523500D01*
Y322500D01*
X524500D01*
Y324500D01*
X523500D01*
Y325500D01*
X521500D01*
Y324500D01*
X520500D01*
Y322500D01*
X521500D01*
X521900Y322900D02*
Y322300D01*
X523100D01*
Y322900D01*
X523700D01*
Y324100D01*
X523100D01*
Y324700D01*
X521900D01*
Y324100D01*
X521300D01*
Y322900D01*
X521900D01*
X510500Y288000D02*
Y287000D01*
X512500D01*
Y288000D01*
X513500D01*
Y290000D01*
X512500D01*
Y291000D01*
X510500D01*
Y290000D01*
X509500D01*
Y288000D01*
X510500D01*
X510900Y288400D02*
Y287800D01*
X512100D01*
Y288400D01*
X512700D01*
Y289600D01*
X512100D01*
Y290200D01*
X510900D01*
Y289600D01*
X510300D01*
Y288400D01*
X510900D01*
X481500Y266000D02*
Y265000D01*
X483500D01*
Y266000D01*
X484500D01*
Y268000D01*
X483500D01*
Y269000D01*
X481500D01*
Y268000D01*
X480500D01*
Y266000D01*
X481500D01*
X481900Y266400D02*
Y265800D01*
X483100D01*
Y266400D01*
X483700D01*
Y267600D01*
X483100D01*
Y268200D01*
X481900D01*
Y267600D01*
X481300D01*
Y266400D01*
X481900D01*
X495500Y259500D02*
Y258500D01*
X497500D01*
Y259500D01*
X498500D01*
Y261500D01*
X497500D01*
Y262500D01*
X495500D01*
Y261500D01*
X494500D01*
Y259500D01*
X495500D01*
X495900Y259900D02*
Y259300D01*
X497100D01*
Y259900D01*
X497700D01*
Y261100D01*
X497100D01*
Y261700D01*
X495900D01*
Y261100D01*
X495300D01*
Y259900D01*
X495900D01*
X530500Y294500D02*
Y293500D01*
X532500D01*
Y294500D01*
X533500D01*
Y296500D01*
X532500D01*
Y297500D01*
X530500D01*
Y296500D01*
X529500D01*
Y294500D01*
X530500D01*
X530900Y294900D02*
Y294300D01*
X532100D01*
Y294900D01*
X532700D01*
Y296100D01*
X532100D01*
Y296700D01*
X530900D01*
Y296100D01*
X530300D01*
Y294900D01*
X530900D01*
X514105Y272500D02*
Y271500D01*
X516105D01*
Y272500D01*
X517105D01*
Y274500D01*
X516105D01*
Y275500D01*
X514105D01*
Y274500D01*
X513105D01*
Y272500D01*
X514105D01*
X514505Y272900D02*
Y272300D01*
X515705D01*
Y272900D01*
X516305D01*
Y274100D01*
X515705D01*
Y274700D01*
X514505D01*
Y274100D01*
X513905D01*
Y272900D01*
X514505D01*
X535500Y275000D02*
Y274000D01*
X537500D01*
Y275000D01*
X538500D01*
Y277000D01*
X537500D01*
Y278000D01*
X535500D01*
Y277000D01*
X534500D01*
Y275000D01*
X535500D01*
X535900Y275400D02*
Y274800D01*
X537100D01*
Y275400D01*
X537700D01*
Y276600D01*
X537100D01*
Y277200D01*
X535900D01*
Y276600D01*
X535300D01*
Y275400D01*
X535900D01*
X258000Y377500D02*
Y376500D01*
X260000D01*
Y377500D01*
X261000D01*
Y379500D01*
X260000D01*
Y380500D01*
X258000D01*
Y379500D01*
X257000D01*
Y377500D01*
X258000D01*
X258400Y377900D02*
Y377300D01*
X259600D01*
Y377900D01*
X260200D01*
Y379100D01*
X259600D01*
Y379700D01*
X258400D01*
Y379100D01*
X257800D01*
Y377900D01*
X258400D01*
X278000Y404000D02*
Y403000D01*
X280000D01*
Y404000D01*
X281000D01*
Y406000D01*
X280000D01*
Y407000D01*
X278000D01*
Y406000D01*
X277000D01*
Y404000D01*
X278000D01*
X278400Y404400D02*
Y403800D01*
X279600D01*
Y404400D01*
X280200D01*
Y405600D01*
X279600D01*
Y406200D01*
X278400D01*
Y405600D01*
X277800D01*
Y404400D01*
X278400D01*
X343360Y407944D02*
Y406945D01*
X345360D01*
Y407944D01*
X346360D01*
Y409944D01*
X345360D01*
Y410945D01*
X343360D01*
Y409944D01*
X342360D01*
Y407944D01*
X343360D01*
X343760Y408345D02*
Y407745D01*
X344960D01*
Y408345D01*
X345560D01*
Y409545D01*
X344960D01*
Y410145D01*
X343760D01*
Y409545D01*
X343160D01*
Y408345D01*
X343760D01*
X342945Y405944D02*
Y404945D01*
X344945D01*
Y405944D01*
X345944D01*
Y407944D01*
X344945D01*
Y408945D01*
X342945D01*
Y407944D01*
X341945D01*
Y405944D01*
X342945D01*
X343344Y406345D02*
Y405745D01*
X344545D01*
Y406345D01*
X345145D01*
Y407545D01*
X344545D01*
Y408145D01*
X343344D01*
Y407545D01*
X342744D01*
Y406345D01*
X343344D01*
X332500Y400500D02*
Y399500D01*
X334500D01*
Y400500D01*
X335500D01*
Y402500D01*
X334500D01*
Y403500D01*
X332500D01*
Y402500D01*
X331500D01*
Y400500D01*
X332500D01*
X332900Y400900D02*
Y400300D01*
X334100D01*
Y400900D01*
X334700D01*
Y402100D01*
X334100D01*
Y402700D01*
X332900D01*
Y402100D01*
X332300D01*
Y400900D01*
X332900D01*
X328500Y400500D02*
Y399500D01*
X330500D01*
Y400500D01*
X331500D01*
Y402500D01*
X330500D01*
Y403500D01*
X328500D01*
Y402500D01*
X327500D01*
Y400500D01*
X328500D01*
X328900Y400900D02*
Y400300D01*
X330100D01*
Y400900D01*
X330700D01*
Y402100D01*
X330100D01*
Y402700D01*
X328900D01*
Y402100D01*
X328300D01*
Y400900D01*
X328900D01*
X343500Y391250D02*
Y390250D01*
X345500D01*
Y391250D01*
X346500D01*
Y393250D01*
X345500D01*
Y394250D01*
X343500D01*
Y393250D01*
X342500D01*
Y391250D01*
X343500D01*
X343900Y391650D02*
Y391050D01*
X345100D01*
Y391650D01*
X345700D01*
Y392850D01*
X345100D01*
Y393450D01*
X343900D01*
Y392850D01*
X343300D01*
Y391650D01*
X343900D01*
X403000Y362500D02*
Y361500D01*
X405000D01*
Y362500D01*
X406000D01*
Y364500D01*
X405000D01*
Y365500D01*
X403000D01*
Y364500D01*
X402000D01*
Y362500D01*
X403000D01*
X403400Y362900D02*
Y362300D01*
X404600D01*
Y362900D01*
X405200D01*
Y364100D01*
X404600D01*
Y364700D01*
X403400D01*
Y364100D01*
X402800D01*
Y362900D01*
X403400D01*
X452194Y355805D02*
Y354805D01*
X454194D01*
Y355805D01*
X455195D01*
Y357805D01*
X454194D01*
Y358805D01*
X452194D01*
Y357805D01*
X451194D01*
Y355805D01*
X452194D01*
X452595Y356206D02*
Y355606D01*
X453794D01*
Y356206D01*
X454394D01*
Y357405D01*
X453794D01*
Y358005D01*
X452595D01*
Y357405D01*
X451995D01*
Y356206D01*
X452595D01*
X451500Y352000D02*
Y351000D01*
X453500D01*
Y352000D01*
X454500D01*
Y354000D01*
X453500D01*
Y355000D01*
X451500D01*
Y354000D01*
X450500D01*
Y352000D01*
X451500D01*
X451900Y352400D02*
Y351800D01*
X453100D01*
Y352400D01*
X453700D01*
Y353600D01*
X453100D01*
Y354200D01*
X451900D01*
Y353600D01*
X451300D01*
Y352400D01*
X451900D01*
X260000Y362000D02*
Y361000D01*
X262000D01*
Y362000D01*
X263000D01*
Y364000D01*
X262000D01*
Y365000D01*
X260000D01*
Y364000D01*
X259000D01*
Y362000D01*
X260000D01*
X260400Y362400D02*
Y361800D01*
X261600D01*
Y362400D01*
X262200D01*
Y363600D01*
X261600D01*
Y364200D01*
X260400D01*
Y363600D01*
X259800D01*
Y362400D01*
X260400D01*
X285500Y368500D02*
Y367500D01*
X287500D01*
Y368500D01*
X288500D01*
Y370500D01*
X287500D01*
Y371500D01*
X285500D01*
Y370500D01*
X284500D01*
Y368500D01*
X285500D01*
X285900Y368900D02*
Y368300D01*
X287100D01*
Y368900D01*
X287700D01*
Y370100D01*
X287100D01*
Y370700D01*
X285900D01*
Y370100D01*
X285300D01*
Y368900D01*
X285900D01*
X286000Y379000D02*
Y378000D01*
X288000D01*
Y379000D01*
X289000D01*
Y381000D01*
X288000D01*
Y382000D01*
X286000D01*
Y381000D01*
X285000D01*
Y379000D01*
X286000D01*
X286400Y379400D02*
Y378800D01*
X287600D01*
Y379400D01*
X288200D01*
Y380600D01*
X287600D01*
Y381200D01*
X286400D01*
Y380600D01*
X285800D01*
Y379400D01*
X286400D01*
X307000Y381000D02*
Y380000D01*
X309000D01*
Y381000D01*
X310000D01*
Y383000D01*
X309000D01*
Y384000D01*
X307000D01*
Y383000D01*
X306000D01*
Y381000D01*
X307000D01*
X307400Y381400D02*
Y380800D01*
X308600D01*
Y381400D01*
X309200D01*
Y382600D01*
X308600D01*
Y383200D01*
X307400D01*
Y382600D01*
X306800D01*
Y381400D01*
X307400D01*
X324500Y394500D02*
Y393500D01*
X326500D01*
Y394500D01*
X327500D01*
Y396500D01*
X326500D01*
Y397500D01*
X324500D01*
Y396500D01*
X323500D01*
Y394500D01*
X324500D01*
X324900Y394900D02*
Y394300D01*
X326100D01*
Y394900D01*
X326700D01*
Y396100D01*
X326100D01*
Y396700D01*
X324900D01*
Y396100D01*
X324300D01*
Y394900D01*
X324900D01*
X368000Y396000D02*
Y395000D01*
X370000D01*
Y396000D01*
X371000D01*
Y398000D01*
X370000D01*
Y399000D01*
X368000D01*
Y398000D01*
X367000D01*
Y396000D01*
X368000D01*
X368400Y396400D02*
Y395800D01*
X369600D01*
Y396400D01*
X370200D01*
Y397600D01*
X369600D01*
Y398200D01*
X368400D01*
Y397600D01*
X367800D01*
Y396400D01*
X368400D01*
X382000Y394000D02*
Y393000D01*
X384000D01*
Y394000D01*
X385000D01*
Y396000D01*
X384000D01*
Y397000D01*
X382000D01*
Y396000D01*
X381000D01*
Y394000D01*
X382000D01*
X382400Y394400D02*
Y393800D01*
X383600D01*
Y394400D01*
X384200D01*
Y395600D01*
X383600D01*
Y396200D01*
X382400D01*
Y395600D01*
X381800D01*
Y394400D01*
X382400D01*
X400500Y394500D02*
Y393500D01*
X402500D01*
Y394500D01*
X403500D01*
Y396500D01*
X402500D01*
Y397500D01*
X400500D01*
Y396500D01*
X399500D01*
Y394500D01*
X400500D01*
X400900Y394900D02*
Y394300D01*
X402100D01*
Y394900D01*
X402700D01*
Y396100D01*
X402100D01*
Y396700D01*
X400900D01*
Y396100D01*
X400300D01*
Y394900D01*
X400900D01*
X312000Y387500D02*
Y386500D01*
X314000D01*
Y387500D01*
X315000D01*
Y389500D01*
X314000D01*
Y390500D01*
X312000D01*
Y389500D01*
X311000D01*
Y387500D01*
X312000D01*
X312400Y387900D02*
Y387300D01*
X313600D01*
Y387900D01*
X314200D01*
Y389100D01*
X313600D01*
Y389700D01*
X312400D01*
Y389100D01*
X311800D01*
Y387900D01*
X312400D01*
X319000Y394500D02*
Y393500D01*
X321000D01*
Y394500D01*
X322000D01*
Y396500D01*
X321000D01*
Y397500D01*
X319000D01*
Y396500D01*
X318000D01*
Y394500D01*
X319000D01*
X319400Y394900D02*
Y394300D01*
X320600D01*
Y394900D01*
X321200D01*
Y396100D01*
X320600D01*
Y396700D01*
X319400D01*
Y396100D01*
X318800D01*
Y394900D01*
X319400D01*
X281000Y344000D02*
Y343000D01*
X283000D01*
Y344000D01*
X284000D01*
Y346000D01*
X283000D01*
Y347000D01*
X281000D01*
Y346000D01*
X280000D01*
Y344000D01*
X281000D01*
X281400Y344400D02*
Y343800D01*
X282600D01*
Y344400D01*
X283200D01*
Y345600D01*
X282600D01*
Y346200D01*
X281400D01*
Y345600D01*
X280800D01*
Y344400D01*
X281400D01*
X269500Y313000D02*
Y312000D01*
X271500D01*
Y313000D01*
X272500D01*
Y315000D01*
X271500D01*
Y316000D01*
X269500D01*
Y315000D01*
X268500D01*
Y313000D01*
X269500D01*
X269900Y313400D02*
Y312800D01*
X271100D01*
Y313400D01*
X271700D01*
Y314600D01*
X271100D01*
Y315200D01*
X269900D01*
Y314600D01*
X269300D01*
Y313400D01*
X269900D01*
X254000Y334500D02*
Y333500D01*
X256000D01*
Y334500D01*
X257000D01*
Y336500D01*
X256000D01*
Y337500D01*
X254000D01*
Y336500D01*
X253000D01*
Y334500D01*
X254000D01*
X254400Y334900D02*
Y334300D01*
X255600D01*
Y334900D01*
X256200D01*
Y336100D01*
X255600D01*
Y336700D01*
X254400D01*
Y336100D01*
X253800D01*
Y334900D01*
X254400D01*
X254000Y318500D02*
Y317500D01*
X256000D01*
Y318500D01*
X257000D01*
Y320500D01*
X256000D01*
Y321500D01*
X254000D01*
Y320500D01*
X253000D01*
Y318500D01*
X254000D01*
X254400Y318900D02*
Y318300D01*
X255600D01*
Y318900D01*
X256200D01*
Y320100D01*
X255600D01*
Y320700D01*
X254400D01*
Y320100D01*
X253800D01*
Y318900D01*
X254400D01*
X564000Y335500D02*
Y334500D01*
X566000D01*
Y335500D01*
X567000D01*
Y337500D01*
X566000D01*
Y338500D01*
X564000D01*
Y337500D01*
X563000D01*
Y335500D01*
X564000D01*
X564400Y335900D02*
Y335300D01*
X565600D01*
Y335900D01*
X566200D01*
Y337100D01*
X565600D01*
Y337700D01*
X564400D01*
Y337100D01*
X563800D01*
Y335900D01*
X564400D01*
X488000Y349500D02*
Y348500D01*
X490000D01*
Y349500D01*
X491000D01*
Y351500D01*
X490000D01*
Y352500D01*
X488000D01*
Y351500D01*
X487000D01*
Y349500D01*
X488000D01*
X488400Y349900D02*
Y349300D01*
X489600D01*
Y349900D01*
X490200D01*
Y351100D01*
X489600D01*
Y351700D01*
X488400D01*
Y351100D01*
X487800D01*
Y349900D01*
X488400D01*
X498000Y356000D02*
Y355000D01*
X500000D01*
Y356000D01*
X501000D01*
Y358000D01*
X500000D01*
Y359000D01*
X498000D01*
Y358000D01*
X497000D01*
Y356000D01*
X498000D01*
X498400Y356400D02*
Y355800D01*
X499600D01*
Y356400D01*
X500200D01*
Y357600D01*
X499600D01*
Y358200D01*
X498400D01*
Y357600D01*
X497800D01*
Y356400D01*
X498400D01*
X313000Y397500D02*
Y396500D01*
X315000D01*
Y397500D01*
X316000D01*
Y399500D01*
X315000D01*
Y400500D01*
X313000D01*
Y399500D01*
X312000D01*
Y397500D01*
X313000D01*
X313400Y397900D02*
Y397300D01*
X314600D01*
Y397900D01*
X315200D01*
Y399100D01*
X314600D01*
Y399700D01*
X313400D01*
Y399100D01*
X312800D01*
Y397900D01*
X313400D01*
X346000Y383000D02*
Y382000D01*
X348000D01*
Y383000D01*
X349000D01*
Y385000D01*
X348000D01*
Y386000D01*
X346000D01*
Y385000D01*
X345000D01*
Y383000D01*
X346000D01*
X346400Y383400D02*
Y382800D01*
X347600D01*
Y383400D01*
X348200D01*
Y384600D01*
X347600D01*
Y385200D01*
X346400D01*
Y384600D01*
X345800D01*
Y383400D01*
X346400D01*
X508500Y357500D02*
Y356500D01*
X510500D01*
Y357500D01*
X511500D01*
Y359500D01*
X510500D01*
Y360500D01*
X508500D01*
Y359500D01*
X507500D01*
Y357500D01*
X508500D01*
X508900Y357900D02*
Y357300D01*
X510100D01*
Y357900D01*
X510700D01*
Y359100D01*
X510100D01*
Y359700D01*
X508900D01*
Y359100D01*
X508300D01*
Y357900D01*
X508900D01*
X324000Y356750D02*
Y355750D01*
X326000D01*
Y356750D01*
X327000D01*
Y358750D01*
X326000D01*
Y359750D01*
X324000D01*
Y358750D01*
X323000D01*
Y356750D01*
X324000D01*
X324400Y357150D02*
Y356550D01*
X325600D01*
Y357150D01*
X326200D01*
Y358350D01*
X325600D01*
Y358950D01*
X324400D01*
Y358350D01*
X323800D01*
Y357150D01*
X324400D01*
X327000Y333000D02*
Y332000D01*
X329000D01*
Y333000D01*
X330000D01*
Y335000D01*
X329000D01*
Y336000D01*
X327000D01*
Y335000D01*
X326000D01*
Y333000D01*
X327000D01*
X327400Y333400D02*
Y332800D01*
X328600D01*
Y333400D01*
X329200D01*
Y334600D01*
X328600D01*
Y335200D01*
X327400D01*
Y334600D01*
X326800D01*
Y333400D01*
X327400D01*
X322000Y350500D02*
Y349500D01*
X324000D01*
Y350500D01*
X325000D01*
Y352500D01*
X324000D01*
Y353500D01*
X322000D01*
Y352500D01*
X321000D01*
Y350500D01*
X322000D01*
X322400Y350900D02*
Y350300D01*
X323600D01*
Y350900D01*
X324200D01*
Y352100D01*
X323600D01*
Y352700D01*
X322400D01*
Y352100D01*
X321800D01*
Y350900D01*
X322400D01*
X384500Y349000D02*
Y348000D01*
X386500D01*
Y349000D01*
X387500D01*
Y351000D01*
X386500D01*
Y352000D01*
X384500D01*
Y351000D01*
X383500D01*
Y349000D01*
X384500D01*
X384900Y349400D02*
Y348800D01*
X386100D01*
Y349400D01*
X386700D01*
Y350600D01*
X386100D01*
Y351200D01*
X384900D01*
Y350600D01*
X384300D01*
Y349400D01*
X384900D01*
X394500Y328000D02*
Y327000D01*
X396500D01*
Y328000D01*
X397500D01*
Y330000D01*
X396500D01*
Y331000D01*
X394500D01*
Y330000D01*
X393500D01*
Y328000D01*
X394500D01*
X394900Y328400D02*
Y327800D01*
X396100D01*
Y328400D01*
X396700D01*
Y329600D01*
X396100D01*
Y330200D01*
X394900D01*
Y329600D01*
X394300D01*
Y328400D01*
X394900D01*
X466500Y290000D02*
Y289000D01*
X468500D01*
Y290000D01*
X469500D01*
Y292000D01*
X468500D01*
Y293000D01*
X466500D01*
Y292000D01*
X465500D01*
Y290000D01*
X466500D01*
X466900Y290400D02*
Y289800D01*
X468100D01*
Y290400D01*
X468700D01*
Y291600D01*
X468100D01*
Y292200D01*
X466900D01*
Y291600D01*
X466300D01*
Y290400D01*
X466900D01*
X505000Y291000D02*
Y290000D01*
X507000D01*
Y291000D01*
X508000D01*
Y293000D01*
X507000D01*
Y294000D01*
X505000D01*
Y293000D01*
X504000D01*
Y291000D01*
X505000D01*
X505400Y291400D02*
Y290800D01*
X506600D01*
Y291400D01*
X507200D01*
Y292600D01*
X506600D01*
Y293200D01*
X505400D01*
Y292600D01*
X504800D01*
Y291400D01*
X505400D01*
D89*
X395657Y268701D02*
G03*
X395657Y268701I-2000J0D01*
G01*
Y281299D02*
G03*
X395657Y281299I-2000J0D01*
G01*
X405500Y268701D02*
G03*
X405500Y268701I-2000J0D01*
G01*
Y281299D02*
G03*
X405500Y281299I-2000J0D01*
G01*
X415343Y268701D02*
G03*
X415343Y268701I-2000J0D01*
G01*
Y281299D02*
G03*
X415343Y281299I-2000J0D01*
G01*
X395657Y292701D02*
G03*
X395657Y292701I-2000J0D01*
G01*
Y305299D02*
G03*
X395657Y305299I-2000J0D01*
G01*
X405500Y292701D02*
G03*
X405500Y292701I-2000J0D01*
G01*
Y305299D02*
G03*
X405500Y305299I-2000J0D01*
G01*
X415343Y292701D02*
G03*
X415343Y292701I-2000J0D01*
G01*
Y305299D02*
G03*
X415343Y305299I-2000J0D01*
G01*
Y257299D02*
G03*
X415343Y257299I-2000J0D01*
G01*
Y244701D02*
G03*
X415343Y244701I-2000J0D01*
G01*
X405500Y257299D02*
G03*
X405500Y257299I-2000J0D01*
G01*
Y244701D02*
G03*
X405500Y244701I-2000J0D01*
G01*
X395657Y257299D02*
G03*
X395657Y257299I-2000J0D01*
G01*
Y244701D02*
G03*
X395657Y244701I-2000J0D01*
G01*
X415343Y233299D02*
G03*
X415343Y233299I-2000J0D01*
G01*
Y220701D02*
G03*
X415343Y220701I-2000J0D01*
G01*
X405500Y233299D02*
G03*
X405500Y233299I-2000J0D01*
G01*
Y220701D02*
G03*
X405500Y220701I-2000J0D01*
G01*
X395657Y233299D02*
G03*
X395657Y233299I-2000J0D01*
G01*
Y220701D02*
G03*
X395657Y220701I-2000J0D01*
G01*
X423547Y342500D02*
G03*
X423547Y342500I-2000J0D01*
G01*
X379453D02*
G03*
X379453Y342500I-2000J0D01*
G01*
X242166Y409604D02*
G03*
X242166Y409604I-2000J0D01*
G01*
Y422203D02*
G03*
X242166Y422203I-2000J0D01*
G01*
X252008Y409604D02*
G03*
X252008Y409604I-2000J0D01*
G01*
Y422203D02*
G03*
X252008Y422203I-2000J0D01*
G01*
X261851Y409604D02*
G03*
X261851Y409604I-2000J0D01*
G01*
Y422203D02*
G03*
X261851Y422203I-2000J0D01*
G01*
D90*
X422747Y342500D02*
G03*
X422747Y342500I-1200J0D01*
G01*
X378653D02*
G03*
X378653Y342500I-1200J0D01*
G01*
M02*
