M48
;Layer_Color=9474304
;FILE_FORMAT=2:5
INCH,LZ
;TYPE=PLATED
T01F00S00C0.00800
T02F00S00C0.02000
T03F00S00C0.02756
T04F00S00C0.03150
T05F00S00C0.03346
T06F00S00C0.03900
T07F00S00C0.03937
T08F00S00C0.04000
T09F00S00C0.04016
T10F00S00C0.04213
T11F00S00C0.04724
;TYPE=NON_PLATED
T13F00S00C0.03150
T14F00S00C0.04331
%
T01
X04825Y0267
X04965Y02605
X0499Y0282
X0506Y0292
X05115Y0289
X0518Y0282586
X0515105Y02735
X0519Y0255
X05365Y0276
X05475Y02725
X0557637Y0269363
X05545Y02955
X05595Y0305
X05315Y02955
X04675Y0291
X03865Y02605
Y0254
X02705Y0314
X0255Y03195
Y03355
X0261Y0363
X0259Y03785
X0287Y038
X02865Y03695
X0282Y0345
X0301Y03465
X030225Y0385
X0308Y0382
X0279Y0405
X0314Y03985
X032Y03955
X03255
X03295Y04015
X03335
X0343945Y0406945
X034436Y0408945
X03445Y039225
X0347Y0384
X0369Y0397
X0383Y0395
X04015Y03955
X0404Y03635
X038066Y03585
X03855Y035
X0388Y0345
X0396Y034
X03955Y0329
X0433Y03225
X04525Y0353
X0453195Y0356805
X0371Y0353
X0358Y03505
X0323Y03515
X0325Y035775
X0327892Y0342
X0328Y0334
X0313Y0339
Y03885
X0489Y03505
X0499Y0357
X05095Y03585
X0525392Y0343051
X05225Y03235
X05535Y03255
X0565Y03365
T02
X0358Y025
Y0261
X0354Y0289
X03515Y02945
X0361Y02965
X03725Y03055
X03835Y03025
X0335329Y0305171
X04135Y0275
X0427
X02865Y0272
X02445Y03115
X02655Y0314
X025975Y033175
X0266Y034
X02725Y03395
X02805Y033
X02945Y0326
X0295Y0315
X0308Y03785
X0305Y03895
X0312Y04185
X02885Y0423
X02635Y03885
X0265Y03805
X02515Y03485
X0242Y0341
X0316944Y0356444
X035Y0351
X0354091Y0350591
X03495Y03275
X0369
X0391Y0325
X03955Y0362
X03745Y0358561
X0371569Y03715
X038Y0373492
X0391Y03915
X04035Y0388
X04125Y04005
X039Y04215
X0364902Y0420598
X0345526Y0411694
X03395Y0416
X0321635Y0415
X031425Y04065
X03285Y03895
Y03835
X0334Y0395
X04535Y0361
X044Y0347
X0523Y0357
T03
X0534902Y02595
X0560098
X0465098
X0439902
X0363098Y02665
Y0286
X0337902
Y02665
X0277598Y02705
X0252402
X0245402Y03995
X0270598
X0312402Y03505
X0337598
X0334402Y03375
X0359598
T04
X0371Y02215
Y02315
Y02415
Y02515
Y02615
Y02715
Y02815
Y02915
X03815Y0291421
Y0281579
Y0271421
Y0261579
X03Y02615
Y02515
Y02415
Y02315
Y02215
Y02715
Y02815
Y02915
X0395079Y0383
X0404921
X0414579
X0424421
X0405961Y04145
X0376039
T05
X0393657Y0220701
X04035
X0413343
Y0233299
X04035
X0393657
Y0244701
X04035
X0413343
Y0257299
X04035
X0393657
Y0268701
X04035
X0413343
Y0281299
X04035
X0393657
Y0292701
X04035
X0413343
Y0305299
X04035
X0393657
X0259851Y0409604
X0250008
X0240166
Y0422203
X0250008
X0259851
T06
X05425Y0285
Y0295
Y0305
X05725
Y0295
Y0285
Y0315
Y0325
Y0335
Y0345
Y0355
Y0365
X05425
Y0355
Y0345
Y0335
Y0325
Y0315
T07
X05325Y031
X058Y02775
Y02675
X04625Y03
Y031
X02955Y03355
Y03455
Y03555
Y03655
Y03755
Y03855
Y03955
X0286008Y0415904
X0276008
X02355Y03955
Y03855
Y03755
Y03655
Y03555
Y03455
Y03355
X0322Y0403
X0351921
X04625Y035
Y034
Y033
Y032
X05325
Y033
Y034
X05145Y03735
X05045
X04945
X04845
X058Y03725
Y03825
T08
X05342Y02266
Y02444
X05598
Y02266
X04648
Y02444
X04392
Y02266
X0384Y03815
X0374Y03815
X0364Y03815
T09
X0245508Y0289904
X0255508
X0265508
X0275508
X0285508
T10
X0583Y03
Y031
X0310508Y0364904
X0303632Y0418904
X0309368Y0427096
X0320508Y0364904
X0330508
X0340508
X0350508
X0360508
X0423008Y0396404
Y0406404
Y0418404
Y0428404
X0583Y035
Y034
Y033
Y032
T11
X0389657Y0314941
X0409342
Y0372028
X03995
X0389657
T13
X0494211Y0240789
T14
X0504789Y0230211
M30
