G04*
G04 #@! TF.GenerationSoftware,Altium Limited,Altium Designer,24.4.1 (13)*
G04*
G04 Layer_Color=128*
%FSLAX25Y25*%
%MOIN*%
G70*
G04*
G04 #@! TF.SameCoordinates,ED40C71A-466C-4DCB-BD38-2C2FE6726D77*
G04*
G04*
G04 #@! TF.FilePolarity,Positive*
G04*
G01*
G75*
%ADD12C,0.00500*%
D12*
X382000Y381500D02*
X386000D01*
X384000Y379500D02*
Y383500D01*
X372000Y381500D02*
X376000D01*
X374000Y379500D02*
Y383500D01*
X362000Y381500D02*
X366000D01*
X364000Y379500D02*
Y383500D01*
X379925Y261579D02*
X383075D01*
X381500Y260004D02*
Y263154D01*
X379925Y271421D02*
X383075D01*
X381500Y269847D02*
Y272996D01*
X391984Y268701D02*
X395331D01*
X393657Y267028D02*
Y270374D01*
X391984Y281299D02*
X395331D01*
X393657Y279626D02*
Y282972D01*
X401827Y268701D02*
X405173D01*
X403500Y267028D02*
Y270374D01*
X401827Y281299D02*
X405173D01*
X403500Y279626D02*
Y282972D01*
X411669Y268701D02*
X415016D01*
X413343Y267028D02*
Y270374D01*
X411669Y281299D02*
X415016D01*
X413343Y279626D02*
Y282972D01*
X391984Y292701D02*
X395331D01*
X393657Y291028D02*
Y294374D01*
X391984Y305299D02*
X395331D01*
X393657Y303626D02*
Y306972D01*
X401827Y292701D02*
X405173D01*
X403500Y291028D02*
Y294374D01*
X401827Y305299D02*
X405173D01*
X403500Y303626D02*
Y306972D01*
X411669Y292701D02*
X415016D01*
X413343Y291028D02*
Y294374D01*
X411669Y305299D02*
X415016D01*
X413343Y303626D02*
Y306972D01*
X411669Y257299D02*
X415016D01*
X413343Y255626D02*
Y258972D01*
X411669Y244701D02*
X415016D01*
X413343Y243028D02*
Y246374D01*
X401827Y257299D02*
X405173D01*
X403500Y255626D02*
Y258972D01*
X401827Y244701D02*
X405173D01*
X403500Y243028D02*
Y246374D01*
X391984Y257299D02*
X395331D01*
X393657Y255626D02*
Y258972D01*
X391984Y244701D02*
X395331D01*
X393657Y243028D02*
Y246374D01*
X411669Y233299D02*
X415016D01*
X413343Y231626D02*
Y234972D01*
X411669Y220701D02*
X415016D01*
X413343Y219028D02*
Y222374D01*
X401827Y233299D02*
X405173D01*
X403500Y231626D02*
Y234972D01*
X401827Y220701D02*
X405173D01*
X403500Y219028D02*
Y222374D01*
X391984Y233299D02*
X395331D01*
X393657Y231626D02*
Y234972D01*
X391984Y220701D02*
X395331D01*
X393657Y219028D02*
Y222374D01*
X298425Y261500D02*
X301575D01*
X300000Y259925D02*
Y263075D01*
X298425Y251500D02*
X301575D01*
X300000Y249925D02*
Y253075D01*
X369425Y261500D02*
X372575D01*
X371000Y259925D02*
Y263075D01*
X369425Y251500D02*
X372575D01*
X371000Y249925D02*
Y253075D01*
X298425Y241500D02*
X301575D01*
X300000Y239925D02*
Y243075D01*
X298425Y271500D02*
X301575D01*
X300000Y269925D02*
Y273075D01*
X369425Y271500D02*
X372575D01*
X371000Y269925D02*
Y273075D01*
X369425Y241500D02*
X372575D01*
X371000Y239925D02*
Y243075D01*
X298425Y281500D02*
X301575D01*
X300000Y279925D02*
Y283075D01*
X369425Y281500D02*
X372575D01*
X371000Y279925D02*
Y283075D01*
X298425Y231500D02*
X301575D01*
X300000Y229925D02*
Y233075D01*
X369425Y231500D02*
X372575D01*
X371000Y229925D02*
Y233075D01*
X298425Y291500D02*
X301575D01*
X300000Y289925D02*
Y293075D01*
X369425Y291500D02*
X372575D01*
X371000Y289925D02*
Y293075D01*
X298425Y221500D02*
X301575D01*
X300000Y219925D02*
Y223075D01*
X369425Y221500D02*
X372575D01*
X371000Y219925D02*
Y223075D01*
X361720Y286000D02*
X364476D01*
X363098Y284622D02*
Y287378D01*
X336524Y286000D02*
X339280D01*
X337902Y284622D02*
Y287378D01*
X403346Y383000D02*
X406496D01*
X404921Y381425D02*
Y384575D01*
X393504Y383000D02*
X396654D01*
X395079Y381425D02*
Y384575D01*
X379925Y291421D02*
X383075D01*
X381500Y289846D02*
Y292996D01*
X379925Y281579D02*
X383075D01*
X381500Y280004D02*
Y283154D01*
X406980Y372028D02*
X411705D01*
X409342Y369665D02*
Y374390D01*
X387295Y372028D02*
X392020D01*
X389657Y369665D02*
Y374390D01*
X397138Y372028D02*
X401862D01*
X399500Y369665D02*
Y374390D01*
X406980Y314941D02*
X411705D01*
X409342Y312579D02*
Y317303D01*
X387295Y314941D02*
X392020D01*
X389657Y312579D02*
Y317303D01*
X417610Y342500D02*
X425484D01*
X421547Y338563D02*
Y346437D01*
X373516Y342500D02*
X381390D01*
X377453Y338563D02*
Y346437D01*
X233531Y335500D02*
X237469D01*
X235500Y333531D02*
Y337469D01*
X233531Y345500D02*
X237469D01*
X235500Y343531D02*
Y347468D01*
X233531Y355500D02*
X237469D01*
X235500Y353532D02*
Y357469D01*
X233531Y365500D02*
X237469D01*
X235500Y363531D02*
Y367469D01*
X233531Y375500D02*
X237469D01*
X235500Y373532D02*
Y377468D01*
X233531Y385500D02*
X237469D01*
X235500Y383531D02*
Y387469D01*
X233531Y395500D02*
X237469D01*
X235500Y393531D02*
Y397468D01*
X293531Y395500D02*
X297468D01*
X295500Y393531D02*
Y397468D01*
X293531Y385500D02*
X297468D01*
X295500Y383531D02*
Y387469D01*
X293531Y375500D02*
X297468D01*
X295500Y373532D02*
Y377468D01*
X293531Y365500D02*
X297468D01*
X295500Y363531D02*
Y367469D01*
X293531Y355500D02*
X297468D01*
X295500Y353532D02*
Y357469D01*
X293531Y345500D02*
X297468D01*
X295500Y343531D02*
Y347468D01*
X293531Y335500D02*
X297468D01*
X295500Y333531D02*
Y337469D01*
X540550Y365000D02*
X544450D01*
X542500Y363050D02*
Y366950D01*
X540550Y355000D02*
X544450D01*
X542500Y353050D02*
Y356950D01*
X540550Y345000D02*
X544450D01*
X542500Y343050D02*
Y346950D01*
X540550Y335000D02*
X544450D01*
X542500Y333050D02*
Y336950D01*
X540550Y325000D02*
X544450D01*
X542500Y323050D02*
Y326950D01*
X540550Y315000D02*
X544450D01*
X542500Y313050D02*
Y316950D01*
X540550Y305000D02*
X544450D01*
X542500Y303050D02*
Y306950D01*
X540550Y295000D02*
X544450D01*
X542500Y293050D02*
Y296950D01*
X540550Y285000D02*
X544450D01*
X542500Y283050D02*
Y286950D01*
X570550Y285000D02*
X574450D01*
X572500Y283050D02*
Y286950D01*
X570550Y295000D02*
X574450D01*
X572500Y293050D02*
Y296950D01*
X570550Y305000D02*
X574450D01*
X572500Y303050D02*
Y306950D01*
X570550Y315000D02*
X574450D01*
X572500Y313050D02*
Y316950D01*
X570550Y325000D02*
X574450D01*
X572500Y323050D02*
Y326950D01*
X570550Y335000D02*
X574450D01*
X572500Y333050D02*
Y336950D01*
X570550Y345000D02*
X574450D01*
X572500Y343050D02*
Y346950D01*
X570550Y355000D02*
X574450D01*
X572500Y353050D02*
Y356950D01*
X570550Y365000D02*
X574450D01*
X572500Y363050D02*
Y366950D01*
X462800Y226600D02*
X466800D01*
X464800Y224600D02*
Y228600D01*
X462800Y244400D02*
X466800D01*
X464800Y242400D02*
Y246400D01*
X437200Y226600D02*
X441200D01*
X439200Y224600D02*
Y228600D01*
X437200Y244400D02*
X441200D01*
X439200Y242400D02*
Y246400D01*
X532200Y244400D02*
X536200D01*
X534200Y242400D02*
Y246400D01*
X532200Y226600D02*
X536200D01*
X534200Y224600D02*
Y228600D01*
X557800Y244400D02*
X561800D01*
X559800Y242400D02*
Y246400D01*
X557800Y226600D02*
X561800D01*
X559800Y224600D02*
Y228600D01*
X533524Y259500D02*
X536279D01*
X534902Y258122D02*
Y260878D01*
X558720Y259500D02*
X561476D01*
X560098Y258122D02*
Y260878D01*
X438524Y259500D02*
X441280D01*
X439902Y258122D02*
Y260878D01*
X463721Y259500D02*
X466476D01*
X465098Y258122D02*
Y260878D01*
X336221Y350500D02*
X338976D01*
X337598Y349122D02*
Y351878D01*
X311024Y350500D02*
X313779D01*
X312402Y349122D02*
Y351878D01*
X244024Y399500D02*
X246779D01*
X245402Y398122D02*
Y400878D01*
X269220Y399500D02*
X271976D01*
X270598Y398122D02*
Y400878D01*
X361720Y266500D02*
X364476D01*
X363098Y265122D02*
Y267878D01*
X336524Y266500D02*
X339280D01*
X337902Y265122D02*
Y267878D01*
X276220Y270500D02*
X278976D01*
X277598Y269122D02*
Y271878D01*
X251024Y270500D02*
X253780D01*
X252402Y269122D02*
Y271878D01*
X413004Y383000D02*
X416153D01*
X414579Y381425D02*
Y384575D01*
X422847Y383000D02*
X425996D01*
X424421Y381425D02*
Y384575D01*
X404386Y414500D02*
X407535D01*
X405961Y412925D02*
Y416075D01*
X374465Y414500D02*
X377614D01*
X376039Y412925D02*
Y416075D01*
X482531Y373500D02*
X486469D01*
X484500Y371532D02*
Y375468D01*
X492531Y373500D02*
X496468D01*
X494500Y371532D02*
Y375468D01*
X502531Y373500D02*
X506468D01*
X504500Y371532D02*
Y375468D01*
X512532Y373500D02*
X516468D01*
X514500Y371532D02*
Y375468D01*
X358402Y364904D02*
X362615D01*
X360508Y362797D02*
Y367010D01*
X348402Y364904D02*
X352615D01*
X350508Y362797D02*
Y367010D01*
X338402Y364904D02*
X342615D01*
X340508Y362797D02*
Y367010D01*
X328402Y364904D02*
X332615D01*
X330508Y362797D02*
Y367010D01*
X318402Y364904D02*
X322615D01*
X320508Y362797D02*
Y367010D01*
X308402Y364904D02*
X312615D01*
X310508Y362797D02*
Y367010D01*
X320031Y403000D02*
X323969D01*
X322000Y401031D02*
Y404969D01*
X349953Y403000D02*
X353890D01*
X351921Y401031D02*
Y404969D01*
X420902Y428404D02*
X425115D01*
X423008Y426297D02*
Y430510D01*
X420902Y418404D02*
X425115D01*
X423008Y416297D02*
Y420510D01*
X420902Y396404D02*
X425115D01*
X423008Y394297D02*
Y398510D01*
X420902Y406404D02*
X425115D01*
X423008Y404297D02*
Y408510D01*
X358221Y337500D02*
X360976D01*
X359598Y336122D02*
Y338878D01*
X333024Y337500D02*
X335780D01*
X334402Y336122D02*
Y338878D01*
X530532Y320000D02*
X534469D01*
X532500Y318032D02*
Y321969D01*
X530532Y330000D02*
X534469D01*
X532500Y328031D02*
Y331968D01*
X530532Y310000D02*
X534469D01*
X532500Y308032D02*
Y311968D01*
X530532Y340000D02*
X534469D01*
X532500Y338032D02*
Y341968D01*
X460532Y320000D02*
X464468D01*
X462500Y318032D02*
Y321969D01*
X460532Y330000D02*
X464468D01*
X462500Y328031D02*
Y331968D01*
X460532Y310000D02*
X464468D01*
X462500Y308032D02*
Y311968D01*
X460532Y340000D02*
X464468D01*
X462500Y338032D02*
Y341968D01*
X460532Y300000D02*
X464468D01*
X462500Y298031D02*
Y301969D01*
X460532Y350000D02*
X464468D01*
X462500Y348031D02*
Y351969D01*
X283501Y289904D02*
X287516D01*
X285508Y287896D02*
Y291912D01*
X273500Y289904D02*
X277516D01*
X275508Y287896D02*
Y291912D01*
X263500Y289904D02*
X267516D01*
X265508Y287896D02*
Y291912D01*
X253501Y289904D02*
X257516D01*
X255508Y287896D02*
Y291912D01*
X243500Y289904D02*
X247516D01*
X245508Y287896D02*
Y291912D01*
X307262Y427096D02*
X311474D01*
X309368Y424990D02*
Y429202D01*
X301526Y418904D02*
X305738D01*
X303632Y416798D02*
Y421010D01*
X580894Y300000D02*
X585106D01*
X583000Y297894D02*
Y302106D01*
X580894Y310000D02*
X585106D01*
X583000Y307894D02*
Y312106D01*
X580894Y320000D02*
X585106D01*
X583000Y317894D02*
Y322106D01*
X580894Y330000D02*
X585106D01*
X583000Y327894D02*
Y332106D01*
X580894Y340000D02*
X585106D01*
X583000Y337894D02*
Y342106D01*
X580894Y350000D02*
X585106D01*
X583000Y347894D02*
Y352106D01*
X578031Y372500D02*
X581968D01*
X580000Y370532D02*
Y374468D01*
X578031Y382500D02*
X581968D01*
X580000Y380532D02*
Y384469D01*
X578031Y267500D02*
X581968D01*
X580000Y265531D02*
Y269468D01*
X578031Y277500D02*
X581968D01*
X580000Y275532D02*
Y279468D01*
X284040Y415904D02*
X287977D01*
X286008Y413935D02*
Y417872D01*
X274040Y415904D02*
X277977D01*
X276008Y413935D02*
Y417872D01*
X238493Y409604D02*
X241839D01*
X240166Y407931D02*
Y411278D01*
X238493Y422203D02*
X241839D01*
X240166Y420530D02*
Y423876D01*
X248335Y409604D02*
X251682D01*
X250008Y407931D02*
Y411278D01*
X248335Y422203D02*
X251682D01*
X250008Y420530D02*
Y423876D01*
X258178Y409604D02*
X261524D01*
X259851Y407931D02*
Y411278D01*
X258178Y422203D02*
X261524D01*
X259851Y420530D02*
Y423876D01*
X492636Y240789D02*
X495785D01*
X494211Y239215D02*
Y242364D01*
X502624Y230211D02*
X506955D01*
X504789Y228045D02*
Y232376D01*
X307000Y378500D02*
X309000D01*
X308000Y377500D02*
Y379500D01*
X394500Y362000D02*
X396500D01*
X395500Y361000D02*
Y363000D01*
X426000Y275000D02*
X428000D01*
X427000Y274000D02*
Y276000D01*
X412500Y275000D02*
X414500D01*
X413500Y274000D02*
Y276000D01*
X334329Y305171D02*
X336329D01*
X335329Y304171D02*
Y306171D01*
X348500Y327500D02*
X350500D01*
X349500Y326500D02*
Y328500D01*
X368000Y327500D02*
X370000D01*
X369000Y326500D02*
Y328500D01*
X350500Y294500D02*
X352500D01*
X351500Y293500D02*
Y295500D01*
X327500Y389500D02*
X329500D01*
X328500Y388500D02*
Y390500D01*
X390000Y391500D02*
X392000D01*
X391000Y390500D02*
Y392500D01*
X411500Y400500D02*
X413500D01*
X412500Y399500D02*
Y401500D01*
X262500Y388500D02*
X264500D01*
X263500Y387500D02*
Y389500D01*
X294000Y315000D02*
X296000D01*
X295000Y314000D02*
Y316000D01*
X279500Y330000D02*
X281500D01*
X280500Y329000D02*
Y331000D01*
X287500Y423000D02*
X289500D01*
X288500Y422000D02*
Y424000D01*
X311000Y418500D02*
X313000D01*
X312000Y417500D02*
Y419500D01*
X313250Y406500D02*
X315250D01*
X314250Y405500D02*
Y407500D01*
X344526Y411694D02*
X346526D01*
X345526Y410695D02*
Y412695D01*
X320635Y415000D02*
X322635D01*
X321635Y414000D02*
Y416000D01*
X333000Y395000D02*
X335000D01*
X334000Y394000D02*
Y396000D01*
X327500Y383500D02*
X329500D01*
X328500Y382500D02*
Y384500D01*
X370569Y371500D02*
X372569D01*
X371569Y370500D02*
Y372500D01*
X379000Y373492D02*
X381000D01*
X380000Y372492D02*
Y374492D01*
X452500Y361000D02*
X454500D01*
X453500Y360000D02*
Y362000D01*
X522000Y357000D02*
X524000D01*
X523000Y356000D02*
Y358000D01*
X304000Y389500D02*
X306000D01*
X305000Y388500D02*
Y390500D01*
X439000Y347000D02*
X441000D01*
X440000Y346000D02*
Y348000D01*
X250500Y348500D02*
X252500D01*
X251500Y347500D02*
Y349500D01*
X264500Y314000D02*
X266500D01*
X265500Y313000D02*
Y315000D01*
X285500Y272000D02*
X287500D01*
X286500Y271000D02*
Y273000D01*
X373500Y358561D02*
X375500D01*
X374500Y357561D02*
Y359561D01*
X338500Y416000D02*
X340500D01*
X339500Y415000D02*
Y417000D01*
X389000Y421500D02*
X391000D01*
X390000Y420500D02*
Y422500D01*
X315944Y356444D02*
X317944D01*
X316944Y355444D02*
Y357444D01*
X241000Y341000D02*
X243000D01*
X242000Y340000D02*
Y342000D01*
X243500Y311500D02*
X245500D01*
X244500Y310500D02*
Y312500D01*
X258750Y331750D02*
X260750D01*
X259750Y330750D02*
Y332750D01*
X265000Y340000D02*
X267000D01*
X266000Y339000D02*
Y341000D01*
X363902Y420598D02*
X365902D01*
X364902Y419598D02*
Y421598D01*
X371500Y305500D02*
X373500D01*
X372500Y304500D02*
Y306500D01*
X390000Y325000D02*
X392000D01*
X391000Y324000D02*
Y326000D01*
X382500Y302500D02*
X384500D01*
X383500Y301500D02*
Y303500D01*
X357000Y261000D02*
X359000D01*
X358000Y260000D02*
Y262000D01*
X357000Y250000D02*
X359000D01*
X358000Y249000D02*
Y251000D01*
X349000Y351000D02*
X351000D01*
X350000Y350000D02*
Y352000D01*
X353091Y350591D02*
X355091D01*
X354091Y349591D02*
Y351591D01*
X402500Y388000D02*
X404500D01*
X403500Y387000D02*
Y389000D01*
X271500Y339500D02*
X273500D01*
X272500Y338500D02*
Y340500D01*
X293500Y326000D02*
X295500D01*
X294500Y325000D02*
Y327000D01*
X353000Y289000D02*
X355000D01*
X354000Y288000D02*
Y290000D01*
X360000Y296500D02*
X362000D01*
X361000Y295500D02*
Y297500D01*
X264000Y380500D02*
X266000D01*
X265000Y379500D02*
Y381500D01*
X518600Y255000D02*
X519400D01*
X519000Y254600D02*
Y255400D01*
X386100Y260500D02*
X386900D01*
X386500Y260100D02*
Y260900D01*
X386100Y254000D02*
X386900D01*
X386500Y253600D02*
Y254400D01*
X301850Y385000D02*
X302650D01*
X302250Y384600D02*
Y385400D01*
X300600Y346500D02*
X301400D01*
X301000Y346100D02*
Y346900D01*
X312600Y339000D02*
X313400D01*
X313000Y338600D02*
Y339400D01*
X327492Y342000D02*
X328292D01*
X327892Y341600D02*
Y342400D01*
X357600Y350500D02*
X358400D01*
X358000Y350100D02*
Y350900D01*
X370600Y353000D02*
X371400D01*
X371000Y352600D02*
Y353400D01*
X380260Y358500D02*
X381060D01*
X380660Y358100D02*
Y358900D01*
X387600Y345000D02*
X388400D01*
X388000Y344600D02*
Y345400D01*
X395600Y340000D02*
X396400D01*
X396000Y339600D02*
Y340400D01*
X432600Y322500D02*
X433400D01*
X433000Y322100D02*
Y322900D01*
X498600Y282000D02*
X499400D01*
X499000Y281600D02*
Y282400D01*
X517600Y282586D02*
X518400D01*
X518000Y282186D02*
Y282986D01*
X553100Y325500D02*
X553900D01*
X553500Y325100D02*
Y325900D01*
X559100Y305000D02*
X559900D01*
X559500Y304600D02*
Y305400D01*
X554100Y295500D02*
X554900D01*
X554500Y295100D02*
Y295900D01*
X547100Y272500D02*
X547900D01*
X547500Y272100D02*
Y272900D01*
X557237Y269363D02*
X558037D01*
X557637Y268963D02*
Y269763D01*
X524992Y343051D02*
X525792D01*
X525392Y342651D02*
Y343451D01*
X522100Y323500D02*
X522900D01*
X522500Y323100D02*
Y323900D01*
X511100Y289000D02*
X511900D01*
X511500Y288600D02*
Y289400D01*
X482100Y267000D02*
X482900D01*
X482500Y266600D02*
Y267400D01*
X496100Y260500D02*
X496900D01*
X496500Y260100D02*
Y260900D01*
X531100Y295500D02*
X531900D01*
X531500Y295100D02*
Y295900D01*
X514705Y273500D02*
X515505D01*
X515105Y273100D02*
Y273900D01*
X536100Y276000D02*
X536900D01*
X536500Y275600D02*
Y276400D01*
X258600Y378500D02*
X259400D01*
X259000Y378100D02*
Y378900D01*
X278600Y405000D02*
X279400D01*
X279000Y404600D02*
Y405400D01*
X343960Y408945D02*
X344760D01*
X344360Y408544D02*
Y409344D01*
X343545Y406945D02*
X344344D01*
X343945Y406544D02*
Y407344D01*
X333100Y401500D02*
X333900D01*
X333500Y401100D02*
Y401900D01*
X329100Y401500D02*
X329900D01*
X329500Y401100D02*
Y401900D01*
X344100Y392250D02*
X344900D01*
X344500Y391850D02*
Y392650D01*
X403600Y363500D02*
X404400D01*
X404000Y363100D02*
Y363900D01*
X452795Y356805D02*
X453594D01*
X453195Y356405D02*
Y357206D01*
X452100Y353000D02*
X452900D01*
X452500Y352600D02*
Y353400D01*
X260600Y363000D02*
X261400D01*
X261000Y362600D02*
Y363400D01*
X286100Y369500D02*
X286900D01*
X286500Y369100D02*
Y369900D01*
X286600Y380000D02*
X287400D01*
X287000Y379600D02*
Y380400D01*
X307600Y382000D02*
X308400D01*
X308000Y381600D02*
Y382400D01*
X325100Y395500D02*
X325900D01*
X325500Y395100D02*
Y395900D01*
X368600Y397000D02*
X369400D01*
X369000Y396600D02*
Y397400D01*
X382600Y395000D02*
X383400D01*
X383000Y394600D02*
Y395400D01*
X401100Y395500D02*
X401900D01*
X401500Y395100D02*
Y395900D01*
X312600Y388500D02*
X313400D01*
X313000Y388100D02*
Y388900D01*
X319600Y395500D02*
X320400D01*
X320000Y395100D02*
Y395900D01*
X281600Y345000D02*
X282400D01*
X282000Y344600D02*
Y345400D01*
X270100Y314000D02*
X270900D01*
X270500Y313600D02*
Y314400D01*
X254600Y335500D02*
X255400D01*
X255000Y335100D02*
Y335900D01*
X254600Y319500D02*
X255400D01*
X255000Y319100D02*
Y319900D01*
X564600Y336500D02*
X565400D01*
X565000Y336100D02*
Y336900D01*
X488600Y350500D02*
X489400D01*
X489000Y350100D02*
Y350900D01*
X498600Y357000D02*
X499400D01*
X499000Y356600D02*
Y357400D01*
X313600Y398500D02*
X314400D01*
X314000Y398100D02*
Y398900D01*
X346600Y384000D02*
X347400D01*
X347000Y383600D02*
Y384400D01*
X509100Y358500D02*
X509900D01*
X509500Y358100D02*
Y358900D01*
X324600Y357750D02*
X325400D01*
X325000Y357350D02*
Y358150D01*
X327600Y334000D02*
X328400D01*
X328000Y333600D02*
Y334400D01*
X322600Y351500D02*
X323400D01*
X323000Y351100D02*
Y351900D01*
X385100Y350000D02*
X385900D01*
X385500Y349600D02*
Y350400D01*
X395100Y329000D02*
X395900D01*
X395500Y328600D02*
Y329400D01*
X467100Y291000D02*
X467900D01*
X467500Y290600D02*
Y291400D01*
X505600Y292000D02*
X506400D01*
X506000Y291600D02*
Y292400D01*
M02*
